<svg width="30" height="30" viewBox="0 0 30 30" fill="none" xmlns="http://www.w3.org/2000/svg">
<path d="M22.7488 10.9646L22.7535 11.0736L22.8587 11.1027C26.949 12.2361 29.85 15.9978 29.85 20.3027C29.85 22.0214 29.3923 23.6924 28.5228 25.1605L28.4903 25.2154L28.5073 25.277L29.7425 29.7425L25.277 28.5073L25.2154 28.4903L25.1605 28.5228C23.6924 29.3923 22.0214 29.85 20.3027 29.85C15.9976 29.85 12.2357 26.9488 11.1025 22.8582L11.0734 22.7531L10.9644 22.7484C9.10563 22.6682 7.30501 22.1364 5.7089 21.1926L5.65402 21.1601L5.59257 21.1771L0.257255 22.6527L1.73301 17.3176L1.75001 17.2561L1.71756 17.2013C0.690787 15.4648 0.15 13.4869 0.15 11.4551C0.15 5.22147 5.22147 0.15 11.4551 0.15C17.5242 0.15 22.4911 4.95782 22.7488 10.9646ZM2.41868 20.3069L2.34809 20.5621L2.60324 20.4915L5.8855 19.5835L6.1592 19.7585L6.15923 19.7585C7.73964 20.7685 9.57082 21.3023 11.4551 21.3023C16.8851 21.3023 21.3023 16.8851 21.3023 11.4551C21.3023 6.0251 16.8851 1.60781 11.4551 1.60781C6.0251 1.60781 1.60781 6.0251 1.60781 11.4551C1.60781 13.3393 2.14167 15.1707 3.15166 16.7509L3.15167 16.751L3.32667 17.0247L2.41868 20.3069ZM27.3968 27.5813L27.6519 27.6519L27.5813 27.3968L26.9122 24.9785L27.0912 24.7036L27.0913 24.7035C27.9423 23.3934 28.3922 21.8713 28.3922 20.3027C28.3922 16.8007 26.1281 13.7238 22.8815 12.6333L22.7059 12.5743L22.6847 12.7583C22.0857 17.9522 17.9522 22.0857 12.7585 22.6845L12.5746 22.7057L12.6335 22.8812C13.7238 26.1281 16.8007 28.3922 20.3027 28.3922C21.8713 28.3922 23.3934 27.9423 24.7035 27.0913L24.7036 27.0912L24.9785 26.9122L27.3968 27.5813Z" fill="#222222" stroke="white" stroke-width="0.3"/>
<path d="M10.7262 16.0289H12.184V17.4867H10.7262V16.0289Z" fill="#222222" stroke="white" stroke-width="0.3"/>
<path d="M12.2327 12.6397L12.184 12.6843V12.7503V13.9711H10.7262V12.0423L12.7419 10.1973C12.742 10.1973 12.742 10.1972 12.742 10.1972C13.1419 9.8313 13.3629 9.33045 13.3629 8.78906C13.3629 7.73691 12.5072 6.88125 11.4551 6.88125C10.4534 6.88125 9.62982 7.65678 9.5531 8.63906H8.09275C8.17149 6.8526 9.64955 5.42344 11.4551 5.42344C13.3109 5.42344 14.8207 6.93328 14.8207 8.78906C14.8207 9.73088 14.4216 10.6363 13.7262 11.2728L12.2327 12.6397Z" fill="#222222" stroke="white" stroke-width="0.3"/>
</svg>
