<svg width="30" height="30" viewBox="0 0 30 30" fill="none" xmlns="http://www.w3.org/2000/svg">
<path d="M10.9091 0H2.7273C1.22312 0 0 1.22312 0 2.7273V10.9091C0 12.4132 1.22312 13.6364 2.7273 13.6364H10.9091C12.4132 13.6364 13.6364 12.4133 13.6364 10.9091V2.7273C13.6364 1.22312 12.4132 0 10.9091 0ZM12.2727 10.9091C12.2727 11.6608 11.6608 12.2727 10.9091 12.2727H2.7273C1.97559 12.2727 1.36368 11.6608 1.36368 10.9091V2.7273C1.36368 1.97559 1.97559 1.36368 2.7273 1.36368H10.9091C11.6608 1.36368 12.2727 1.97559 12.2727 2.7273V10.9091Z" fill="#222222"/>
<path d="M27.2726 0H19.0908C17.5866 0 16.3635 1.22312 16.3635 2.7273V10.9091C16.3635 12.4132 17.5866 13.6364 19.0908 13.6364H27.2726C28.7768 13.6364 29.9999 12.4133 29.9999 10.9091V2.7273C29.9999 1.22312 28.7768 0 27.2726 0ZM28.6363 10.9091C28.6363 11.6608 28.0243 12.2727 27.2726 12.2727H19.0908C18.3391 12.2727 17.7272 11.6608 17.7272 10.9091V2.7273C17.7272 1.97559 18.3391 1.36368 19.0908 1.36368H27.2726C28.0243 1.36368 28.6363 1.97559 28.6363 2.7273V10.9091Z" fill="#222222"/>
<path d="M10.9091 16.3637H2.7273C1.22312 16.3637 0 17.5868 0 19.091V27.2728C0 28.7769 1.22312 30.0001 2.7273 30.0001H10.9091C12.4132 30.0001 13.6364 28.777 13.6364 27.2728V19.091C13.6364 17.5868 12.4132 16.3637 10.9091 16.3637ZM12.2727 27.2728C12.2727 28.0245 11.6608 28.6364 10.9091 28.6364H2.7273C1.97559 28.6364 1.36368 28.0245 1.36368 27.2728V19.091C1.36368 18.3393 1.97559 17.7273 2.7273 17.7273H10.9091C11.6608 17.7273 12.2727 18.3393 12.2727 19.091V27.2728Z" fill="#222222"/>
<path d="M26.5909 22.5H23.8636V19.7728C23.8636 19.3959 23.5587 19.0909 23.1818 19.0909C22.8049 19.0909 22.5 19.3959 22.5 19.7728V22.5H19.7727C19.3958 22.5 19.0908 22.805 19.0908 23.1819C19.0908 23.5588 19.3958 23.8637 19.7727 23.8637H22.5V26.591C22.5 26.9678 22.805 27.2728 23.1819 27.2728C23.5587 27.2728 23.8637 26.9678 23.8637 26.591V23.8637H26.5909C26.9678 23.8637 27.2728 23.5587 27.2728 23.1818C27.2728 22.805 26.9678 22.5 26.5909 22.5Z" fill="#222222"/>
</svg>
