<svg width="30" height="30" viewBox="0 0 30 30" fill="none" xmlns="http://www.w3.org/2000/svg">
<g clip-path="url(#clip0)">
<mask id="path-1-inside-1" fill="white">
<path d="M0.000732422 15.5727V15.6154C0.366993 20.5646 2.07621 24.2765 5.04699 26.6231C7.97708 29.0123 11.1513 30.1643 14.6105 30.1643C18.2324 30.207 21.6101 28.927 24.6216 26.3671C27.6738 23.8498 29.1795 20.0953 29.1795 15.2314V14.9328C29.1795 10.0263 27.6738 6.35704 24.6216 3.83979C21.5694 1.27987 18.1917 -9.15527e-05 14.5698 -9.15527e-05H14.407C10.8665 0.0425739 7.61082 1.32253 4.59934 3.88245C1.58786 6.39971 0.0414281 10.2822 0.000732422 15.5727ZM13.7152 22.2712V29.0123H12.7385C12.535 28.7563 12.3722 28.4577 12.2094 28.2017C12.0466 27.9457 11.8839 27.6897 11.7211 27.391C11.5583 27.135 11.3548 26.7937 11.2327 26.5377C11.0699 26.2817 10.9479 26.0257 10.8258 25.7271C10.5816 25.3004 10.3781 24.8738 10.2153 24.4898C10.0119 24.1058 9.84908 23.7218 9.72699 23.3805C9.97117 23.2098 10.256 22.9965 10.5816 22.8685C10.9479 22.7405 11.3141 22.6125 11.6804 22.5272C12.0873 22.4419 12.4536 22.3992 12.7792 22.3565C13.1454 22.3139 13.471 22.2712 13.7152 22.2712ZM15.4244 29.0123V22.3139C15.6279 22.3139 15.872 22.2712 16.1162 22.3139C16.3604 22.3139 16.6453 22.3565 16.8894 22.3992C17.3371 22.4845 17.8661 22.6125 18.2731 22.7405C18.7207 22.9112 19.1277 23.1245 19.4126 23.3805C18.9242 24.6178 18.3952 25.5991 17.8661 26.5377C17.3371 27.4764 16.7266 28.287 16.0755 28.9697V29.0123H15.4244ZM11.0293 28.6283V28.671C10.7444 28.543 10.4595 28.3297 10.1339 28.2017C9.84908 28.0737 9.48282 27.903 9.19795 27.7324C8.62821 27.4337 8.05847 27.0924 7.48873 26.7084C6.95969 26.3244 6.43064 25.8978 5.98299 25.4711C6.14578 25.3004 6.34925 25.1298 6.51204 25.0018C6.67482 24.8738 6.8783 24.7031 7.08178 24.5325C7.24456 24.4471 7.44804 24.3191 7.65151 24.1485C7.85499 24.0205 8.09917 23.8498 8.34334 23.6792C8.66891 24.4471 8.99447 25.2578 9.40143 25.9831C9.80838 26.7511 10.256 27.4764 10.7037 28.1164C10.7444 28.2017 10.7851 28.287 10.8665 28.3723C10.9072 28.415 10.9479 28.543 11.0293 28.6283ZM23.4821 25.4711V25.5138C22.4647 26.3244 21.5694 27.0071 20.6741 27.4337C19.7788 27.8604 18.8835 28.287 18.0696 28.6283C18.7207 27.9457 19.2905 27.0924 19.6567 26.2817C20.0637 25.4284 20.4706 24.5325 20.7962 23.6792C20.959 23.7645 21.1625 23.8498 21.4066 24.0205C21.6101 24.1485 21.895 24.2765 22.1392 24.4045C22.3833 24.5751 22.5868 24.7458 22.831 24.9165C23.0752 25.1298 23.3193 25.3004 23.4821 25.4711ZM22.7903 15.9567H27.4703C27.4703 17.5354 27.1447 19.0286 26.5343 20.5646C25.9646 22.0579 25.1506 23.2952 24.1333 24.3618V24.4045C23.9298 24.0631 23.6449 23.7645 23.36 23.5512C23.0345 23.3378 22.7496 23.1672 22.424 22.9965C22.2206 22.8685 22.0171 22.6979 21.8136 22.6125C21.6101 22.4845 21.3253 22.3992 21.1218 22.2712C21.2846 21.9299 21.4473 21.5459 21.6101 21.2046C21.7322 20.8206 21.9357 20.3939 22.0171 20.0099C22.2613 19.3273 22.424 18.602 22.5868 17.8767C22.7089 17.2367 22.7903 16.554 22.7903 15.9567ZM8.05847 22.2712V22.3139C7.73291 22.4845 7.36664 22.6125 7.08178 22.7832C6.79691 22.9965 6.51204 23.2098 6.26786 23.3805C6.02369 23.5085 5.77951 23.6792 5.57604 23.8498C5.37256 24.0205 5.20978 24.1911 5.04699 24.3618C3.98891 23.2952 3.21569 22.1005 2.72734 20.6926C2.1983 19.2846 1.83204 17.706 1.66925 15.9994H6.67482C6.67482 17.194 6.8376 18.346 7.12247 19.498C7.36664 20.6926 7.73291 21.5886 8.05847 22.2712ZM13.7152 15.9994V20.9059C13.3896 20.8632 12.9826 20.8632 12.6164 20.9059C12.2094 20.9486 11.8025 21.0766 11.4362 21.2046C11.1106 21.2899 10.7037 21.3752 10.3781 21.5032C10.0119 21.5886 9.6456 21.7592 9.36073 21.9299C9.11656 21.5032 8.91308 20.9912 8.7503 20.4366C8.54682 19.9246 8.42473 19.37 8.30264 18.858C8.22125 18.346 8.18056 17.7913 8.13986 17.322C8.09917 16.8527 8.05847 16.3834 8.05847 15.9994H13.7152ZM15.4244 20.8206V15.9994H21.4473C21.4473 16.2554 21.4473 16.554 21.4066 16.8954C21.3253 17.194 21.2846 17.578 21.2439 17.9193C21.1218 18.4313 20.9997 18.986 20.8369 19.498C20.6741 19.9673 20.5113 20.4366 20.3079 20.8206C20.2265 21.0339 20.1451 21.2899 20.0637 21.4606C19.9416 21.6739 19.8195 21.8019 19.7381 21.9299C19.2905 21.5886 18.68 21.3752 17.9475 21.2046C17.2557 21.0339 16.4418 20.8632 15.7093 20.8206H15.4244ZM6.67482 14.5914H1.66925C1.66925 13.8661 1.79134 13.0555 1.99482 12.0742C2.1983 11.0502 2.60525 10.1116 3.05291 9.08762C3.25638 8.57564 3.50056 8.06365 3.74473 7.55167C4.0296 7.08235 4.35517 6.57037 4.68073 6.10105C4.92491 6.27171 5.16908 6.39971 5.37256 6.5277C5.61673 6.6557 5.9016 6.82636 6.14578 6.95436C6.43064 7.08235 6.71551 7.21035 7.04108 7.38101C7.32595 7.509 7.69221 7.67967 8.05847 7.85033C7.73291 8.91696 7.36664 9.94093 7.12247 11.0929C6.8376 12.2022 6.67482 13.3115 6.67482 14.5488V14.5914ZM13.7152 9.5996V14.5914H8.05847C8.05847 14.2501 8.09917 13.7381 8.18056 13.2262C8.22125 12.7142 8.34334 12.1595 8.42473 11.6049C8.58751 11.0076 8.7096 10.4102 8.87238 9.89826C9.03517 9.38628 9.19795 8.95962 9.36073 8.57564C10.0933 8.87429 10.8258 9.08762 11.3141 9.21562C11.8432 9.38628 12.3315 9.51427 12.8199 9.55694H13.2675C13.4303 9.5996 13.5931 9.5996 13.7152 9.5996ZM15.4244 14.5914V9.64227C15.7093 9.5996 16.0348 9.55694 16.3604 9.51427C16.7266 9.47161 17.1743 9.38628 17.5406 9.30095L18.151 9.17295C18.3545 9.08762 18.5986 9.04495 18.8021 9.00229C19.0463 8.91696 19.2905 8.87429 19.5346 8.78896C19.7381 8.70363 19.9416 8.66097 20.1044 8.57564C20.6334 9.98359 20.959 11.1356 21.1625 12.1169C21.3659 13.0555 21.4473 13.8661 21.4473 14.5488V14.5914H15.4244ZM27.4703 14.5488V14.5914H22.7903V14.3355C22.7496 13.5248 22.6275 12.5862 22.4647 11.6049C22.3019 10.6662 21.9357 9.55694 21.4473 8.19165C22.0985 7.85033 22.7089 7.509 23.1973 7.16768C23.6856 6.82636 24.1333 6.44237 24.4588 6.10105C25.1506 6.82636 25.7611 7.80766 26.2901 9.08762C26.8192 10.3249 27.1854 11.6049 27.3889 12.9702C27.4296 13.2262 27.4296 13.4821 27.4703 13.7381V14.5488ZM13.7152 1.57853V8.23432C12.6978 8.06365 11.8432 7.85033 11.192 7.67967C10.5409 7.509 10.0526 7.33834 9.72699 7.16768C9.97117 6.5277 10.2153 5.97305 10.4595 5.46107C10.7037 4.99175 10.9886 4.47977 11.2327 4.05311C11.3141 3.88245 11.4769 3.71179 11.599 3.49846C11.7211 3.3278 11.8025 3.11448 11.9246 2.94382C12.0466 2.73049 12.1687 2.4745 12.2908 2.21851C12.4536 2.00518 12.5757 1.74919 12.7385 1.57853H13.7152ZM15.4244 1.57853H16.3604C16.7266 1.87718 17.0929 2.30384 17.3778 2.77316C17.7033 3.24247 18.0696 3.79712 18.3138 4.26644C18.5986 4.82109 18.8835 5.33307 19.1277 5.84506C19.3719 6.35704 19.5753 6.82636 19.7381 7.16768C19.2905 7.33834 18.68 7.509 18.0696 7.67967C17.4592 7.85033 16.6046 8.02099 15.4244 8.19165V1.57853ZM23.4821 5.07708V5.11975C23.4007 5.24774 23.2379 5.4184 23.1159 5.5464C22.9938 5.6744 22.7903 5.84506 22.5868 5.97305C22.424 6.10105 22.2206 6.22905 21.9764 6.35704C21.7322 6.48504 21.4066 6.6557 21.1218 6.82636C20.959 6.48504 20.6741 5.88772 20.2672 5.07708C19.9009 4.26644 19.2498 3.28514 18.4359 2.21851C19.4533 2.38917 20.3486 2.77316 21.1625 3.28514C22.0578 3.75446 22.831 4.39444 23.4821 5.07708ZM8.34334 6.44237V6.48504C8.05847 6.31437 7.61082 6.10105 7.16317 5.88772C6.67482 5.6744 6.14578 5.4184 5.65743 5.07708C5.9423 4.82109 6.22717 4.5651 6.47134 4.39444C6.71551 4.18111 7.00038 4.01045 7.24456 3.83979C7.69221 3.54113 8.22125 3.24247 8.7503 2.98648C9.27934 2.73049 9.93047 2.4745 10.7444 2.21851C10.4595 2.55983 10.256 2.98648 10.0526 3.3278C9.84908 3.66913 9.60491 4.01045 9.40143 4.35177C9.19795 4.69309 9.03517 5.07708 8.87238 5.4184C8.66891 5.75973 8.50612 6.10105 8.34334 6.44237Z"/>
</mask>
<path d="M0.000732422 15.5727V15.6154C0.366993 20.5646 2.07621 24.2765 5.04699 26.6231C7.97708 29.0123 11.1513 30.1643 14.6105 30.1643C18.2324 30.207 21.6101 28.927 24.6216 26.3671C27.6738 23.8498 29.1795 20.0953 29.1795 15.2314V14.9328C29.1795 10.0263 27.6738 6.35704 24.6216 3.83979C21.5694 1.27987 18.1917 -9.15527e-05 14.5698 -9.15527e-05H14.407C10.8665 0.0425739 7.61082 1.32253 4.59934 3.88245C1.58786 6.39971 0.0414281 10.2822 0.000732422 15.5727ZM13.7152 22.2712V29.0123H12.7385C12.535 28.7563 12.3722 28.4577 12.2094 28.2017C12.0466 27.9457 11.8839 27.6897 11.7211 27.391C11.5583 27.135 11.3548 26.7937 11.2327 26.5377C11.0699 26.2817 10.9479 26.0257 10.8258 25.7271C10.5816 25.3004 10.3781 24.8738 10.2153 24.4898C10.0119 24.1058 9.84908 23.7218 9.72699 23.3805C9.97117 23.2098 10.256 22.9965 10.5816 22.8685C10.9479 22.7405 11.3141 22.6125 11.6804 22.5272C12.0873 22.4419 12.4536 22.3992 12.7792 22.3565C13.1454 22.3139 13.471 22.2712 13.7152 22.2712ZM15.4244 29.0123V22.3139C15.6279 22.3139 15.872 22.2712 16.1162 22.3139C16.3604 22.3139 16.6453 22.3565 16.8894 22.3992C17.3371 22.4845 17.8661 22.6125 18.2731 22.7405C18.7207 22.9112 19.1277 23.1245 19.4126 23.3805C18.9242 24.6178 18.3952 25.5991 17.8661 26.5377C17.3371 27.4764 16.7266 28.287 16.0755 28.9697V29.0123H15.4244ZM11.0293 28.6283V28.671C10.7444 28.543 10.4595 28.3297 10.1339 28.2017C9.84908 28.0737 9.48282 27.903 9.19795 27.7324C8.62821 27.4337 8.05847 27.0924 7.48873 26.7084C6.95969 26.3244 6.43064 25.8978 5.98299 25.4711C6.14578 25.3004 6.34925 25.1298 6.51204 25.0018C6.67482 24.8738 6.8783 24.7031 7.08178 24.5325C7.24456 24.4471 7.44804 24.3191 7.65151 24.1485C7.85499 24.0205 8.09917 23.8498 8.34334 23.6792C8.66891 24.4471 8.99447 25.2578 9.40143 25.9831C9.80838 26.7511 10.256 27.4764 10.7037 28.1164C10.7444 28.2017 10.7851 28.287 10.8665 28.3723C10.9072 28.415 10.9479 28.543 11.0293 28.6283ZM23.4821 25.4711V25.5138C22.4647 26.3244 21.5694 27.0071 20.6741 27.4337C19.7788 27.8604 18.8835 28.287 18.0696 28.6283C18.7207 27.9457 19.2905 27.0924 19.6567 26.2817C20.0637 25.4284 20.4706 24.5325 20.7962 23.6792C20.959 23.7645 21.1625 23.8498 21.4066 24.0205C21.6101 24.1485 21.895 24.2765 22.1392 24.4045C22.3833 24.5751 22.5868 24.7458 22.831 24.9165C23.0752 25.1298 23.3193 25.3004 23.4821 25.4711ZM22.7903 15.9567H27.4703C27.4703 17.5354 27.1447 19.0286 26.5343 20.5646C25.9646 22.0579 25.1506 23.2952 24.1333 24.3618V24.4045C23.9298 24.0631 23.6449 23.7645 23.36 23.5512C23.0345 23.3378 22.7496 23.1672 22.424 22.9965C22.2206 22.8685 22.0171 22.6979 21.8136 22.6125C21.6101 22.4845 21.3253 22.3992 21.1218 22.2712C21.2846 21.9299 21.4473 21.5459 21.6101 21.2046C21.7322 20.8206 21.9357 20.3939 22.0171 20.0099C22.2613 19.3273 22.424 18.602 22.5868 17.8767C22.7089 17.2367 22.7903 16.554 22.7903 15.9567ZM8.05847 22.2712V22.3139C7.73291 22.4845 7.36664 22.6125 7.08178 22.7832C6.79691 22.9965 6.51204 23.2098 6.26786 23.3805C6.02369 23.5085 5.77951 23.6792 5.57604 23.8498C5.37256 24.0205 5.20978 24.1911 5.04699 24.3618C3.98891 23.2952 3.21569 22.1005 2.72734 20.6926C2.1983 19.2846 1.83204 17.706 1.66925 15.9994H6.67482C6.67482 17.194 6.8376 18.346 7.12247 19.498C7.36664 20.6926 7.73291 21.5886 8.05847 22.2712ZM13.7152 15.9994V20.9059C13.3896 20.8632 12.9826 20.8632 12.6164 20.9059C12.2094 20.9486 11.8025 21.0766 11.4362 21.2046C11.1106 21.2899 10.7037 21.3752 10.3781 21.5032C10.0119 21.5886 9.6456 21.7592 9.36073 21.9299C9.11656 21.5032 8.91308 20.9912 8.7503 20.4366C8.54682 19.9246 8.42473 19.37 8.30264 18.858C8.22125 18.346 8.18056 17.7913 8.13986 17.322C8.09917 16.8527 8.05847 16.3834 8.05847 15.9994H13.7152ZM15.4244 20.8206V15.9994H21.4473C21.4473 16.2554 21.4473 16.554 21.4066 16.8954C21.3253 17.194 21.2846 17.578 21.2439 17.9193C21.1218 18.4313 20.9997 18.986 20.8369 19.498C20.6741 19.9673 20.5113 20.4366 20.3079 20.8206C20.2265 21.0339 20.1451 21.2899 20.0637 21.4606C19.9416 21.6739 19.8195 21.8019 19.7381 21.9299C19.2905 21.5886 18.68 21.3752 17.9475 21.2046C17.2557 21.0339 16.4418 20.8632 15.7093 20.8206H15.4244ZM6.67482 14.5914H1.66925C1.66925 13.8661 1.79134 13.0555 1.99482 12.0742C2.1983 11.0502 2.60525 10.1116 3.05291 9.08762C3.25638 8.57564 3.50056 8.06365 3.74473 7.55167C4.0296 7.08235 4.35517 6.57037 4.68073 6.10105C4.92491 6.27171 5.16908 6.39971 5.37256 6.5277C5.61673 6.6557 5.9016 6.82636 6.14578 6.95436C6.43064 7.08235 6.71551 7.21035 7.04108 7.38101C7.32595 7.509 7.69221 7.67967 8.05847 7.85033C7.73291 8.91696 7.36664 9.94093 7.12247 11.0929C6.8376 12.2022 6.67482 13.3115 6.67482 14.5488V14.5914ZM13.7152 9.5996V14.5914H8.05847C8.05847 14.2501 8.09917 13.7381 8.18056 13.2262C8.22125 12.7142 8.34334 12.1595 8.42473 11.6049C8.58751 11.0076 8.7096 10.4102 8.87238 9.89826C9.03517 9.38628 9.19795 8.95962 9.36073 8.57564C10.0933 8.87429 10.8258 9.08762 11.3141 9.21562C11.8432 9.38628 12.3315 9.51427 12.8199 9.55694H13.2675C13.4303 9.5996 13.5931 9.5996 13.7152 9.5996ZM15.4244 14.5914V9.64227C15.7093 9.5996 16.0348 9.55694 16.3604 9.51427C16.7266 9.47161 17.1743 9.38628 17.5406 9.30095L18.151 9.17295C18.3545 9.08762 18.5986 9.04495 18.8021 9.00229C19.0463 8.91696 19.2905 8.87429 19.5346 8.78896C19.7381 8.70363 19.9416 8.66097 20.1044 8.57564C20.6334 9.98359 20.959 11.1356 21.1625 12.1169C21.3659 13.0555 21.4473 13.8661 21.4473 14.5488V14.5914H15.4244ZM27.4703 14.5488V14.5914H22.7903V14.3355C22.7496 13.5248 22.6275 12.5862 22.4647 11.6049C22.3019 10.6662 21.9357 9.55694 21.4473 8.19165C22.0985 7.85033 22.7089 7.509 23.1973 7.16768C23.6856 6.82636 24.1333 6.44237 24.4588 6.10105C25.1506 6.82636 25.7611 7.80766 26.2901 9.08762C26.8192 10.3249 27.1854 11.6049 27.3889 12.9702C27.4296 13.2262 27.4296 13.4821 27.4703 13.7381V14.5488ZM13.7152 1.57853V8.23432C12.6978 8.06365 11.8432 7.85033 11.192 7.67967C10.5409 7.509 10.0526 7.33834 9.72699 7.16768C9.97117 6.5277 10.2153 5.97305 10.4595 5.46107C10.7037 4.99175 10.9886 4.47977 11.2327 4.05311C11.3141 3.88245 11.4769 3.71179 11.599 3.49846C11.7211 3.3278 11.8025 3.11448 11.9246 2.94382C12.0466 2.73049 12.1687 2.4745 12.2908 2.21851C12.4536 2.00518 12.5757 1.74919 12.7385 1.57853H13.7152ZM15.4244 1.57853H16.3604C16.7266 1.87718 17.0929 2.30384 17.3778 2.77316C17.7033 3.24247 18.0696 3.79712 18.3138 4.26644C18.5986 4.82109 18.8835 5.33307 19.1277 5.84506C19.3719 6.35704 19.5753 6.82636 19.7381 7.16768C19.2905 7.33834 18.68 7.509 18.0696 7.67967C17.4592 7.85033 16.6046 8.02099 15.4244 8.19165V1.57853ZM23.4821 5.07708V5.11975C23.4007 5.24774 23.2379 5.4184 23.1159 5.5464C22.9938 5.6744 22.7903 5.84506 22.5868 5.97305C22.424 6.10105 22.2206 6.22905 21.9764 6.35704C21.7322 6.48504 21.4066 6.6557 21.1218 6.82636C20.959 6.48504 20.6741 5.88772 20.2672 5.07708C19.9009 4.26644 19.2498 3.28514 18.4359 2.21851C19.4533 2.38917 20.3486 2.77316 21.1625 3.28514C22.0578 3.75446 22.831 4.39444 23.4821 5.07708ZM8.34334 6.44237V6.48504C8.05847 6.31437 7.61082 6.10105 7.16317 5.88772C6.67482 5.6744 6.14578 5.4184 5.65743 5.07708C5.9423 4.82109 6.22717 4.5651 6.47134 4.39444C6.71551 4.18111 7.00038 4.01045 7.24456 3.83979C7.69221 3.54113 8.22125 3.24247 8.7503 2.98648C9.27934 2.73049 9.93047 2.4745 10.7444 2.21851C10.4595 2.55983 10.256 2.98648 10.0526 3.3278C9.84908 3.66913 9.60491 4.01045 9.40143 4.35177C9.19795 4.69309 9.03517 5.07708 8.87238 5.4184C8.66891 5.75973 8.50612 6.10105 8.34334 6.44237Z" fill="#222222" stroke="white" stroke-width="0.6" mask="url(#path-1-inside-1)"/>
</g>
<defs>
<clipPath id="clip0">
<rect width="30" height="30" fill="white" transform="matrix(1 0 0 -1 0 30)"/>
</clipPath>
</defs>
</svg>
