<svg width="132" height="26" viewBox="0 0 132 26" fill="none" xmlns="http://www.w3.org/2000/svg">
<g opacity="0.6">
<path d="M26.7073 23.269C26.7073 24.0816 26.0485 24.7404 25.2358 24.7404H22.7332C21.9206 24.7404 21.2618 24.0816 21.2618 23.269V9.62619C21.2618 9.58728 21.2302 9.55574 21.1913 9.55574C21.1626 9.55574 21.1367 9.5732 21.126 9.59986L15.4964 23.5663C15.272 24.123 14.7319 24.4876 14.1317 24.4876H12.579C11.9783 24.4876 11.4378 24.1224 11.2138 23.565L5.60305 9.60621C5.59079 9.57572 5.56123 9.55574 5.52837 9.55574C5.48392 9.55574 5.44789 9.59177 5.44789 9.63622V23.269C5.44789 24.0816 4.7891 24.7404 3.97644 24.7404H1.47383C0.66117 24.7404 0.00238037 24.0816 0.00238037 23.269V1.89278C0.00238037 1.08012 0.66117 0.421329 1.47383 0.421329H6.14776C6.75278 0.421329 7.29614 0.791667 7.51734 1.3548L13.2627 15.9814C13.2776 16.0193 13.3142 16.0442 13.3548 16.0442C13.3955 16.0442 13.4321 16.0193 13.4469 15.9814L19.1923 1.3548C19.4135 0.791667 19.9569 0.421329 20.5619 0.421329H25.2358C26.0485 0.421329 26.7073 1.08012 26.7073 1.89278V23.269Z" fill="#7F8A95"/>
<path d="M32.9452 3.38749C35.1144 1.12916 38.0423 0 41.7288 0C45.4153 0 48.3376 1.12916 50.4956 3.38749C52.6535 5.64581 53.7325 8.71308 53.7325 12.5893C53.7325 16.4655 52.6535 19.5328 50.4956 21.7911C48.3376 24.0382 45.4153 25.1618 41.7288 25.1618C38.031 25.1618 35.1032 24.0382 32.9452 21.7911C30.7872 19.5328 29.7082 16.4655 29.7082 12.5893C29.7082 8.71308 30.7872 5.64581 32.9452 3.38749ZM45.8762 7.07833C44.8421 5.7076 43.4597 5.02224 41.7288 5.02224C39.9979 5.02224 38.6099 5.7076 37.5646 7.07833C36.5306 8.43782 36.0136 10.2748 36.0136 12.5893C36.0136 14.8926 36.5306 16.7296 37.5646 18.1003C38.5986 19.4598 39.9867 20.1395 41.7288 20.1395C43.4597 20.1395 44.8421 19.4598 45.8762 18.1003C46.9214 16.7296 47.4441 14.8926 47.4441 12.5893C47.4441 10.2748 46.9214 8.43782 45.8762 7.07833Z" fill="#7F8A95"/>
<path d="M67.8942 25.1618C64.2302 25.1618 61.3416 24.0551 59.2286 21.8417C57.1269 19.6171 56.076 16.5273 56.076 12.5725C56.076 8.62882 57.1325 5.55031 59.2455 3.33693C61.3585 1.11231 64.2414 0 67.8942 0C69.9286 0 71.7719 0.410094 73.424 1.23028C75.0762 2.03923 76.3856 3.18525 77.3522 4.66833C78.0617 5.7362 78.5286 6.9135 78.7529 8.20021C78.8954 9.01769 78.2172 9.70742 77.3874 9.70742H74.2804C73.5258 9.70742 72.9173 9.12649 72.6859 8.40824C72.4147 7.567 71.964 6.85404 71.3335 6.26938C70.4006 5.39301 69.2542 4.95483 67.8942 4.95483C66.1971 4.95483 64.854 5.63457 63.8649 6.99406C62.8758 8.35355 62.3813 10.2074 62.3813 12.5556C62.3813 14.9375 62.8758 16.8082 63.8649 18.1677C64.854 19.5272 66.2027 20.2069 67.9111 20.2069C69.2711 20.2069 70.4063 19.7912 71.3167 18.9598C71.9496 18.3888 72.4103 17.6773 72.6987 16.8254C72.935 16.1272 73.5361 15.5723 74.2733 15.5723H77.3889C78.2309 15.5723 78.9128 16.2813 78.7594 17.1092C78.3559 19.2867 77.3249 21.0945 75.6663 22.5327C73.632 24.2854 71.0413 25.1618 67.8942 25.1618Z" fill="#7F8A95"/>
<path d="M89.4955 5.08965C88.6829 5.08965 88.0241 5.74844 88.0241 6.5611V10.528C88.0241 11.3407 88.6829 11.9994 89.4955 11.9994H91.6488C92.784 11.9994 93.6719 11.6905 94.3125 11.0725C94.9532 10.4546 95.2735 9.61754 95.2735 8.56141C95.2735 7.51651 94.942 6.67947 94.2788 6.05028C93.6157 5.40986 92.7334 5.08965 91.6319 5.08965H89.4955ZM89.4955 16.2296C88.6829 16.2296 88.0241 16.8884 88.0241 17.701V23.269C88.0241 24.0816 87.3653 24.7404 86.5526 24.7404H83.3082C82.4956 24.7404 81.8368 24.0816 81.8368 23.269V1.89278C81.8368 1.08012 82.4956 0.421329 83.3082 0.421329H92.2557C95.2679 0.421329 97.5776 1.12354 99.1848 2.52797C100.792 3.9324 101.596 5.90422 101.596 8.44343C101.596 9.97145 101.225 11.359 100.483 12.6062C100.028 13.3767 99.4606 14.0184 98.7823 14.5313C98.1049 15.0435 97.7615 15.9575 98.1516 16.7119L101.193 22.593C101.7 23.5724 100.989 24.7404 99.8862 24.7404H96.2744C95.7133 24.7404 95.2011 24.4214 94.9537 23.9178L91.5809 17.0522C91.3335 16.5487 90.8213 16.2296 90.2602 16.2296H89.4955Z" fill="#7F8A95"/>
<path d="M131.403 23.269C131.403 24.0816 130.744 24.7404 129.931 24.7404H127.429C126.616 24.7404 125.957 24.0816 125.957 23.269V9.62619C125.957 9.58728 125.926 9.55574 125.887 9.55574C125.858 9.55574 125.832 9.5732 125.821 9.59985L120.192 23.5663C119.967 24.123 119.427 24.4876 118.827 24.4876H117.274C116.674 24.4876 116.133 24.1224 115.909 23.565L110.298 9.60621C110.286 9.57572 110.257 9.55574 110.224 9.55574C110.179 9.55574 110.143 9.59177 110.143 9.63622V23.269C110.143 24.0816 109.485 24.7404 108.672 24.7404H106.169C105.357 24.7404 104.698 24.0816 104.698 23.269V1.89278C104.698 1.08012 105.357 0.421329 106.169 0.421329H110.843C111.448 0.421329 111.992 0.791667 112.213 1.3548L117.958 15.9814C117.973 16.0193 118.01 16.0442 118.05 16.0442C118.091 16.0442 118.127 16.0193 118.142 15.9814L123.888 1.3548C124.109 0.791667 124.652 0.421329 125.257 0.421329H129.931C130.744 0.421329 131.403 1.08012 131.403 1.89278V23.269Z" fill="#7F8A95"/>
</g>
</svg>
