<svg width="54" height="56" viewBox="0 0 56 56" fill="none" xmlns="http://www.w3.org/2000/svg">
<rect x="17.7672" y="45.7264" width="3.67621" height="16.3049" rx="1.83811" transform="rotate(-133.418 17.7672 45.7264)" fill="#7F8A95"/>
<rect x="37.1672" y="9.9646" width="3.67621" height="16.1166" rx="1.83811" transform="rotate(46.5825 37.1672 9.9646)" fill="#7F8A95"/>
<rect x="38.3807" y="43.7434" width="3.67621" height="19.0024" rx="1.83811" transform="rotate(136.582 38.3807 43.7434)" fill="#7F8A95"/>
<rect x="16.8548" y="11.9453" width="3.67621" height="18.2523" rx="1.83811" transform="rotate(-43.4175 16.8548 11.9453)" fill="#7F8A95"/>
<rect x="32.5649" y="28.2403" width="3.59854" height="16.0417" rx="1.79927" transform="rotate(-43.4175 32.5649 28.2403)" fill="#7F8A95" stroke="white" stroke-width="0.0776753"/>
<rect x="23.3153" y="27.5756" width="3.67621" height="16.8227" rx="1.83811" transform="rotate(136.582 23.3153 27.5756)" fill="#7F8A95"/>
<rect x="44.3036" y="17.0822" width="3.67621" height="16.1136" rx="1.83811" transform="rotate(46.5825 44.3036 17.0822)" fill="#7F8A95"/>
<rect x="11.6138" y="38.7705" width="3.67621" height="16.1136" rx="1.83811" transform="rotate(-133.418 11.6138 38.7705)" fill="#7F8A95"/>
</svg>
