<svg width="20" height="20" viewBox="0 0 20 20" fill="none" xmlns="http://www.w3.org/2000/svg">
<path d="M16.7128 3.75H3.28724C2.39223 3.75 1.66669 4.47554 1.66669 5.37055C1.66669 5.91907 1.94416 6.43035 2.40406 6.72929L8.25606 10.5331C8.8873 10.9434 9.20292 11.1486 9.543 11.2284C9.84359 11.2989 10.1564 11.2989 10.457 11.2284C10.7971 11.1486 11.1127 10.9434 11.744 10.5331L17.596 6.72929C18.0559 6.43035 18.3334 5.91907 18.3334 5.37055C18.3334 4.47554 17.6078 3.75 16.7128 3.75Z" stroke="#A1A1A6"/>
<path d="M17.9166 6.66669V13.05C17.9166 14.1701 17.9166 14.7302 17.6987 15.158C17.5069 15.5343 17.201 15.8403 16.8246 16.032C16.3968 16.25 15.8368 16.25 14.7166 16.25H5.28331C4.16321 16.25 3.60316 16.25 3.17533 16.032C2.79901 15.8403 2.49305 15.5343 2.3013 15.158C2.08331 14.7302 2.08331 14.1701 2.08331 13.05V6.66669" stroke="#A1A1A6" stroke-linecap="round" stroke-linejoin="round"/>
</svg>
