<svg width="20" height="19" viewBox="0 0 15 19" fill="none" xmlns="http://www.w3.org/2000/svg">
<path d="M14.398 6.10565H11.5494V3.39406C11.5494 1.5225 9.73281 0 7.49992 0C5.26719 0 3.45059 1.5225 3.45059 3.39406V6.10565H0.601875C0.269433 6.10565 0 6.35498 0 6.66229V13.7811C0 16.6588 2.53148 19 5.64304 19H9.35696C12.4685 19 15 16.6588 15 13.7811V6.66229C14.9998 6.35498 14.7304 6.10565 14.398 6.10565ZM4.65434 3.39406C4.65434 2.1364 5.93082 1.11328 7.49992 1.11328C9.06903 1.11328 10.3457 2.1364 10.3457 3.39406V6.10565H4.65434V3.39406ZM13.7961 13.7811C13.7961 16.0449 11.8047 17.8867 9.3568 17.8867H5.64304C3.19526 17.8867 1.20375 16.0449 1.20375 13.7811V7.21893H13.7961V13.7811Z" fill="#A1A1A6"/>
</svg>
