<svg width="20" height="20" viewBox="0 0 20 20" fill="none" xmlns="http://www.w3.org/2000/svg">
<path d="M11.6663 5.05004H11.7163V5.00004V3.33337V3.28337H11.6663H8.33299H8.28299V3.33337V5.00004V5.05004H8.33299H11.6663ZM3.33299 6.61671H3.28299V6.66671V15.8334V15.8834H3.33299H16.6663H16.7163V15.8334V6.66671V6.61671H16.6663H3.33299ZM3.33299 17.45C2.4356 17.45 1.71632 16.7308 1.71632 15.8334L1.72465 6.66675V6.66671C1.72465 5.76899 2.43593 5.05004 3.33299 5.05004H6.66632H6.71632V5.00004V3.33337C6.71632 2.43599 7.4356 1.71671 8.33299 1.71671H11.6663C12.5637 1.71671 13.283 2.43599 13.283 3.33337V5.00004V5.05004H13.333H16.6663C17.5637 5.05004 18.283 5.76932 18.283 6.66671V15.8334C18.283 16.7308 17.5637 17.45 16.6663 17.45H3.33299Z" fill="#A1A1A6" stroke="white" stroke-width="0.1"/>
</svg>
