<svg width="20" height="20" viewBox="0 0 20 20" fill="none" xmlns="http://www.w3.org/2000/svg">
<path fill-rule="evenodd" clip-rule="evenodd" d="M1.22039 12.8871C2.00179 12.1057 3.0616 11.6667 4.16667 11.6667H10.8333C11.9384 11.6667 12.9982 12.1057 13.7796 12.8871C14.561 13.6685 15 14.7283 15 15.8333V17.5C15 17.9602 14.6269 18.3333 14.1667 18.3333C13.7064 18.3333 13.3333 17.9602 13.3333 17.5V15.8333C13.3333 15.1703 13.0699 14.5344 12.6011 14.0656C12.1323 13.5967 11.4964 13.3333 10.8333 13.3333H4.16667C3.50363 13.3333 2.86774 13.5967 2.3989 14.0656C1.93006 14.5344 1.66667 15.1703 1.66667 15.8333V17.5C1.66667 17.9602 1.29357 18.3333 0.833333 18.3333C0.373096 18.3333 0 17.9602 0 17.5V15.8333C0 14.7283 0.438987 13.6685 1.22039 12.8871Z" fill="#A1A1A6"/>
<path fill-rule="evenodd" clip-rule="evenodd" d="M7.49998 3.33333C6.11927 3.33333 4.99998 4.45262 4.99998 5.83333C4.99998 7.21405 6.11927 8.33333 7.49998 8.33333C8.88069 8.33333 9.99998 7.21405 9.99998 5.83333C9.99998 4.45262 8.88069 3.33333 7.49998 3.33333ZM3.33331 5.83333C3.33331 3.53215 5.19879 1.66667 7.49998 1.66667C9.80117 1.66667 11.6666 3.53215 11.6666 5.83333C11.6666 8.13452 9.80117 10 7.49998 10C5.19879 10 3.33331 8.13452 3.33331 5.83333Z" fill="#A1A1A6"/>
<path fill-rule="evenodd" clip-rule="evenodd" d="M15.8598 12.4C15.9749 11.9544 16.4294 11.6864 16.875 11.8015C17.7689 12.0323 18.5608 12.5534 19.1264 13.283C19.692 14.0127 19.9993 14.9095 20 15.8327L20 17.5C20 17.9602 19.6269 18.3333 19.1667 18.3333C18.7064 18.3333 18.3333 17.9602 18.3333 17.5L18.3333 15.834C18.3333 15.8339 18.3333 15.834 18.3333 15.834C18.3329 15.2801 18.1485 14.7419 17.8092 14.3041C17.4698 13.8664 16.9947 13.5537 16.4583 13.4152C16.0127 13.3001 15.7447 12.8456 15.8598 12.4Z" fill="#A1A1A6"/>
<path fill-rule="evenodd" clip-rule="evenodd" d="M12.5261 2.40163C12.6402 1.95578 13.0942 1.68688 13.5401 1.80104C14.4363 2.03052 15.2307 2.55177 15.798 3.28261C16.3653 4.01346 16.6732 4.91232 16.6732 5.8375C16.6732 6.76268 16.3653 7.66154 15.798 8.39238C15.2307 9.12323 14.4363 9.64448 13.5401 9.87396C13.0942 9.98811 12.6402 9.71922 12.5261 9.27337C12.4119 8.82751 12.6808 8.37353 13.1267 8.25937C13.6644 8.12169 14.141 7.80894 14.4814 7.37043C14.8218 6.93192 15.0066 6.39261 15.0066 5.8375C15.0066 5.28239 14.8218 4.74307 14.4814 4.30457C14.141 3.86606 13.6644 3.55331 13.1267 3.41562C12.6808 3.30147 12.4119 2.84749 12.5261 2.40163Z" fill="#A1A1A6"/>
</svg>
