<svg width="232" height="194" viewBox="0 0 232 194" fill="none" xmlns="http://www.w3.org/2000/svg">
<g opacity="0.1">
<rect x="83.6987" y="238.583" width="19.9368" height="88.4246" rx="9.96838" transform="rotate(-127.615 83.6987 238.583)" fill="#405169"/>
<rect x="207.938" y="56.2684" width="19.9368" height="87.403" rx="9.96838" transform="rotate(52.3846 207.938 56.2684)" fill="#405169"/>
<rect x="196.002" y="239.188" width="19.9368" height="103.053" rx="9.96838" transform="rotate(142.385 196.002 239.188)" fill="#405169"/>
<rect x="97.2822" y="55.8228" width="19.9368" height="98.9853" rx="9.96838" transform="rotate(-37.6154 97.2822 55.8228)" fill="#405169"/>
<rect x="172.82" y="152.315" width="19.9368" height="87.4183" rx="9.96838" transform="rotate(-37.6154 172.82 152.315)" fill="#405169"/>
<rect x="123.549" y="143.695" width="19.9368" height="91.2328" rx="9.96838" transform="rotate(142.385 123.549 143.695)" fill="#405169"/>
<rect x="242.553" y="98.5845" width="19.9368" height="87.3868" rx="9.96838" transform="rotate(52.3846 242.553 98.5845)" fill="#405169"/>
<rect x="54.2856" y="197.679" width="19.9368" height="87.3868" rx="9.96838" transform="rotate(-127.615 54.2856 197.679)" fill="#405169"/>
</g>
</svg>
