  <svg width="540" height="200" viewBox="0 0 540 200" fill="none" xmlns="http://www.w3.org/2000/svg">
                            <g clip-path="url(#clip0)">
                                    
                            <path d="M537.042 21.2109L537.042 21.2108C536.379 20.7081 535.497 20.5995 534.732 20.9262L534.732 20.9262L474.696 46.5661L474.401 45.8764L474.696 46.5661C473.519 47.0685 472.973 48.4294 473.475 49.6059L472.785 49.9005L473.475 49.606C473.977 50.7812 475.336 51.3279 476.513 50.8274C476.513 50.8271 476.514 50.8267 476.515 50.8264L532.7 26.3124L533.228 27.2171L533.454 26.9858L533.463 26.9765L534.546 28.0138L534.537 28.0231L526.546 36.5138L526.512 36.5502L526.473 36.5817L525.168 37.6429L453.309 111.427C452.998 111.774 452.799 112.206 452.738 112.667C452.738 112.669 452.737 112.671 452.737 112.672L450.239 134.087L448.786 134.247L438.703 105.422L438.526 104.916L438.947 104.585L488.027 65.918L488.036 65.9107L524.155 36.5341L531.218 29.2817L435.743 101.214L435.387 101.482L434.981 101.297L399.433 85.1104L397.886 84.4059L399.449 83.7381L451.529 61.497C452.705 60.9943 453.252 59.6333 452.749 58.4568L452.749 58.4568C452.247 57.2805 450.886 56.7337 449.71 57.2362L449.709 57.2363L391.237 82.2076C390.393 82.5682 389.841 83.3928 389.83 84.3106C389.82 85.2286 390.352 86.066 391.187 86.4463L433.64 105.777L433.917 105.904L434.028 106.187L448.882 144.26L448.883 144.262L448.855 144.272L537.042 21.2109ZM537.042 21.2109C537.705 21.7134 538.047 22.533 537.939 23.3578L522.269 142.844C522.173 143.572 521.738 144.212 521.096 144.569C520.657 144.812 520.157 144.904 519.671 144.84C519.446 144.811 519.225 144.748 519.012 144.651L537.042 21.2109ZM454.285 136.498L454.053 138.265L455.479 137.196L472.283 124.592L473.294 123.834L472.143 123.31L457.846 116.799L456.924 116.379L456.792 117.385L454.285 136.498ZM517.16 138.717L518.071 139.132L518.213 138.141L533.242 33.1061L533.586 30.7061L531.947 32.4929L459.572 111.415L458.874 112.177L459.814 112.605L517.16 138.717Z" fill="#8A959F" stroke="#F5FAFF" stroke-width="1.5"/>
                            <path d="M418.526 115.937L418.525 115.937L386.421 140.598C385.913 140.988 385.297 141.135 384.709 141.057C384.12 140.98 383.562 140.679 383.172 140.172C382.393 139.157 382.584 137.703 383.598 136.924L415.703 112.263C415.703 112.263 415.703 112.263 415.703 112.263C416.718 111.484 418.172 111.675 418.951 112.689C419.731 113.704 419.54 115.158 418.526 115.937Z" fill="#8A959F" stroke="#F5FAFF" stroke-width="1.5"/>
                            <path d="M372.937 145.112C372.937 145.112 372.937 145.112 372.937 145.112L365.027 151.188C364.013 151.967 363.822 153.421 364.601 154.436C364.601 154.436 364.601 154.436 364.601 154.437L364.007 154.893C364.523 155.565 365.262 155.963 366.04 156.065C366.818 156.168 367.635 155.973 368.306 155.457L372.937 145.112ZM372.937 145.112C373.952 144.333 375.406 144.524 376.185 145.538L376.78 145.081L376.186 145.538C376.965 146.553 376.774 148.007 375.759 148.786L367.85 154.862" fill="#8A959F" stroke="#F5FAFF" stroke-width="1.5"/>
                            <path d="M406.48 156.442L406.48 156.443C406.851 156.925 407.02 157.55 406.94 158.154C406.861 158.756 406.536 159.319 406.054 159.69L406.054 159.69C405.572 160.06 404.945 160.229 404.342 160.15C403.74 160.071 403.177 159.746 402.807 159.264L402.807 159.264C402.436 158.782 402.268 158.154 402.347 157.552C402.426 156.947 402.75 156.387 403.233 156.017C403.715 155.646 404.34 155.477 404.945 155.556C405.547 155.635 406.11 155.96 406.48 156.442Z" fill="#8A959F" stroke="#F5FAFF" stroke-width="1.5"/>
                            <path d="M432.066 136.787L432.066 136.787C432.846 137.801 432.655 139.256 431.64 140.035L414.636 153.096C414.128 153.486 413.512 153.633 412.923 153.556C412.334 153.479 411.777 153.178 411.388 152.671C410.608 151.656 410.799 150.202 411.813 149.422L428.818 136.361C428.818 136.361 428.818 136.361 428.818 136.361C429.834 135.582 431.288 135.773 432.066 136.787Z" fill="#8A959F" stroke="#F5FAFF" stroke-width="1.5"/>
                            <path d="M480.856 142.012C480.855 142.012 480.855 142.012 480.855 142.012L463.804 155.109C462.79 155.888 462.599 157.342 463.378 158.357C463.378 158.357 463.378 158.357 463.379 158.357M480.856 142.012L463.379 158.357M480.856 142.012C481.87 141.233 483.324 141.423 484.104 142.438C484.883 143.452 484.692 144.907 483.678 145.686L466.627 158.783C466.627 158.783 466.627 158.783 466.627 158.783M480.856 142.012L466.627 158.783M463.379 158.357C463.769 158.865 464.326 159.166 464.914 159.243C465.503 159.32 466.119 159.173 466.627 158.783M463.379 158.357L466.627 158.783" fill="#8A959F" stroke="#F5FAFF" stroke-width="1.5"/>
                            <path d="M464.87 52.5711C464.378 51.9315 463.637 51.5033 462.837 51.3984C462.037 51.2936 461.21 51.516 460.571 52.0073C459.931 52.4987 459.503 53.2404 459.398 54.0431C459.293 54.8427 459.515 55.6668 460.007 56.3064C460.498 56.9491 461.24 57.3743 462.04 57.4792C462.839 57.584 463.666 57.3646 464.306 56.8702C464.945 56.3788 465.373 55.6402 465.478 54.8406C465.584 54.0379 465.361 53.2108 464.87 52.5711Z" fill="#8A959F"/>
                            </g>
                            <path d="M1.5 36C72 76.5 205.903 194.201 207.524 108.29C209.551 0.900475 -9.94624 111.83 76.1962 162.514C145.11 203.061 279.5 220.001 367 152.5" stroke="#8A959F" stroke-width="3" stroke-linecap="round" stroke-linejoin="round" stroke-dasharray="7 7"/>
                            <defs>
                            <clipPath id="clip0">
                            <rect width="157" height="157" fill="white" transform="translate(383.414) rotate(7.47137)"/>
                            </clipPath>
                            </defs>
                            </svg>