<svg width="33" height="33" viewBox="0 0 33 33" fill="none" xmlns="http://www.w3.org/2000/svg">
<rect x="8.52551" y="30.0254" width="2.82035" height="12.509" rx="1.41017" transform="rotate(-133.418 8.52551 30.0254)" fill="#C0A7FE"/>
<rect x="23.4032" y="2.5896" width="2.82035" height="12.3645" rx="1.41017" transform="rotate(46.5825 23.4032 2.5896)" fill="#FFBA88"/>
<rect x="24.3401" y="28.504" width="2.82035" height="14.5784" rx="1.41017" transform="rotate(136.582 24.3401 28.504)" fill="#C0A7FE"/>
<rect x="7.82544" y="4.10925" width="2.82035" height="14.0029" rx="1.41017" transform="rotate(-43.4175 7.82544 4.10925)" fill="#FFBA88"/>
<rect x="19.8353" y="16.6095" width="2.82035" height="12.3666" rx="1.41017" transform="rotate(-43.4175 19.8353 16.6095)" fill="#BF8AFF"/>
<rect x="12.7792" y="16.1005" width="2.82035" height="12.9062" rx="1.41017" transform="rotate(136.582 12.7792 16.1005)" fill="#77BCFE"/>
<rect x="28.8815" y="8.05005" width="2.82035" height="12.3622" rx="1.41018" transform="rotate(46.5825 28.8815 8.05005)" fill="#BF8AFF"/>
<rect x="3.80042" y="24.689" width="2.82035" height="12.3622" rx="1.41017" transform="rotate(-133.418 3.80042 24.689)" fill="#77BCFE"/>
</svg>
