<svg width="63" height="56" viewBox="0 0 63 56" fill="none" xmlns="http://www.w3.org/2000/svg">
<path d="M57.2459 40.0267H55.6181V38.3827H57.245C57.9468 38.3821 58.6197 38.1126 59.1159 37.6335C59.6121 37.1544 59.8912 36.5047 59.8919 35.8271V28.5114C59.8874 27.767 59.6057 27.049 59.0984 26.4886C58.591 25.9281 57.8918 25.5625 57.1284 25.4585L47.7176 24.2041L37.4162 12.7069C37.2932 12.5669 37.1399 12.4548 36.967 12.3784C36.7941 12.3019 36.606 12.2631 36.4159 12.2647H13.3443C13.1415 12.2627 12.9411 12.3073 12.7598 12.395C12.5784 12.4826 12.4213 12.6107 12.3014 12.7686L3.7027 23.9576V35.8271C3.70338 36.5046 3.98234 37.1541 4.47839 37.6332C4.97444 38.1123 5.64707 38.3819 6.3487 38.3827H7.99351V40.0267H6.3487C5.19569 40.0252 4.09037 39.5822 3.27515 38.795C2.45992 38.0077 2.00135 36.9404 2 35.8271V23.415L10.9298 11.797C11.2078 11.4308 11.5715 11.1334 11.9912 10.9289C12.411 10.7245 12.875 10.6189 13.3451 10.6207H36.4167C36.8514 10.6198 37.2812 10.7099 37.6763 10.8847C38.0715 11.0596 38.4228 11.315 38.706 11.6334L48.5817 22.6604L57.36 23.8334C58.5305 23.9927 59.6026 24.5535 60.3801 25.4132C61.1577 26.273 61.5888 27.3742 61.5946 28.5155V35.8313C61.5921 36.9438 61.133 38.01 60.3179 38.7964C59.5028 39.5828 58.3982 40.0252 57.2459 40.0267Z" fill="#7F8A95"/>
<path d="M20.3066 38.3828H43.288V40.0268H20.3066V38.3828Z" fill="#7F8A95"/>
<path d="M49.4555 45.8234C48.066 45.8225 46.7079 45.4237 45.553 44.6777C44.3981 43.9316 43.4982 42.8717 42.9671 41.6319C42.436 40.3921 42.2975 39.0281 42.5692 37.7124C42.8408 36.3966 43.5104 35.1881 44.4933 34.2397C45.4761 33.2913 46.7282 32.6456 48.0911 32.3841C49.454 32.1226 50.8666 32.2571 52.1504 32.7707C53.4341 33.2842 54.5314 34.1537 55.3034 35.2692C56.0754 36.3848 56.4875 37.6962 56.4877 39.0379C56.4857 40.8376 55.744 42.5631 54.4255 43.8353C53.1071 45.1075 51.3196 45.8226 49.4555 45.8234ZM49.4555 33.8971C48.4027 33.8981 47.3738 34.2004 46.4989 34.7659C45.624 35.3314 44.9423 36.1346 44.5401 37.074C44.1379 38.0135 44.0332 39.0469 44.2392 40.0438C44.4452 41.0407 44.9527 41.9562 45.6976 42.6747C46.4424 43.3931 47.3911 43.8823 48.4238 44.0802C49.4565 44.2782 50.5268 44.1761 51.4994 43.7868C52.472 43.3976 53.3032 42.7387 53.888 41.8934C54.4729 41.0481 54.785 40.0544 54.785 39.0379C54.7841 37.6736 54.2223 36.3654 53.2229 35.4009C52.2236 34.4363 50.8686 33.8943 49.4555 33.8938V33.8971Z" fill="#7F8A95"/>
<path d="M14.1493 45.8234C12.7595 45.8233 11.4009 45.4252 10.2455 44.6796C9.08998 43.934 8.18944 42.8743 7.65771 41.6345C7.12598 40.3948 6.98694 39.0306 7.25818 37.7146C7.52941 36.3985 8.19874 35.1897 9.18153 34.2409C10.1643 33.2921 11.4164 32.646 12.7795 32.3843C14.1426 32.1226 15.5555 32.257 16.8394 32.7705C18.1234 33.2841 19.2208 34.1537 19.9929 35.2694C20.765 36.3851 21.1772 37.6969 21.1772 39.0387C21.1749 40.8376 20.4337 42.5622 19.1162 43.8341C17.7987 45.1061 16.0124 45.8215 14.1493 45.8234ZM14.1493 33.8971C13.0962 33.8973 12.0669 34.1989 11.1914 34.7639C10.316 35.3289 9.63366 36.1318 9.2308 37.0712C8.82794 38.0105 8.72263 39.0441 8.92816 40.0413C9.1337 41.0385 9.64086 41.9544 10.3855 42.6732C11.1302 43.3921 12.0789 43.8816 13.1117 44.0799C14.1445 44.2782 15.215 44.1764 16.1878 43.7872C17.1607 43.3981 17.9922 42.7392 18.5772 41.8939C19.1622 41.0485 19.4745 40.0546 19.4745 39.0379C19.4736 37.6743 18.9123 36.3668 17.9139 35.4023C16.9155 34.4379 15.5615 33.8954 14.1493 33.8938V33.8971Z" fill="#7F8A95"/>
<path d="M25.7262 30.0026C26.126 30.2923 26.6919 30.2231 27.0042 29.8462L34.4076 20.9111C34.7271 20.5257 34.6624 19.9632 34.2633 19.6548C33.8641 19.3464 33.2816 19.4088 32.9621 19.7942L26.1139 28.0538L23.135 25.8924C22.8705 25.7009 22.5203 25.6601 22.2162 25.7855C21.9122 25.9109 21.7005 26.1834 21.661 26.5003C21.6214 26.8173 21.76 27.1305 22.0245 27.322L25.7262 30.0026Z" fill="#7F8A95"/>
</svg>
