<svg width="46" height="57" viewBox="0 0 46 57" fill="none"
                                xmlns="http://www.w3.org/2000/svg">
                                <mask id="path-1-inside-1" fill="white">
                                    <path
                                        d="M44.1557 24.1975C42.6981 23.0058 40.6339 22.6245 38.8962 23.2255C38.4305 23.3867 37.9981 23.6129 37.6107 23.8978C36.6227 24.6247 34.4293 26.8065 32.6911 28.9658V12.3212C32.6911 10.9065 32.1095 9.52372 31.0956 8.52708C30.089 7.53779 28.7668 7.00423 27.3793 7.03018C26.7493 7.04142 26.1457 7.16638 25.5879 7.38473V5.75897C25.5879 4.21926 24.9549 2.71414 23.8506 1.62886C22.7562 0.553098 21.3242 -0.0267258 19.8096 0.000946719C16.7898 0.0532649 14.3244 2.5079 14.234 5.50863C13.5798 5.21201 12.8694 5.04554 12.1339 5.02349C10.5998 4.97853 9.08045 5.57219 7.96663 6.65357C6.87573 7.71247 6.27472 9.11036 6.27472 10.5857L6.27083 12.1621C5.79997 12.0073 5.29797 11.9226 4.77609 11.9226C2.14245 11.9226 0 14.065 0 16.6982L0.00172953 40.8934L0.00562094 41.008C0.225703 44.1834 0.890274 46.9023 1.98161 49.0892C3.00462 51.1396 4.43191 52.7904 6.2237 53.9959C9.74977 56.3688 14.1056 56.6732 17.5063 56.6732C24.1844 56.6732 30.1923 53.353 33.197 48.0053C33.5623 47.4164 34.5252 45.9022 35.5651 44.2691C36.5778 42.6779 37.5199 41.2117 38.3505 39.918C38.8071 39.2067 39.2226 38.5599 39.5832 37.9961C40.9267 35.8951 42.3583 33.8582 43.8387 31.9414C44.3879 31.2306 44.5569 31.0377 44.5954 30.9954C45.2885 30.2391 45.7252 29.3134 45.8584 28.3176C46.0681 26.7554 45.4472 25.2533 44.1557 24.1975ZM42.5637 27.8766C42.5208 28.1948 42.376 28.4966 42.1447 28.7491C42.024 28.881 41.8083 29.1318 41.2081 29.9092C39.6676 31.9034 38.1784 34.0216 36.7823 36.2051C36.4225 36.7677 36.0087 37.4119 35.553 38.1214C34.7207 39.4177 33.7772 40.8874 32.7607 42.4837C31.6966 44.1553 30.7116 45.7037 30.351 46.2861L30.3134 46.3501C27.902 50.667 22.9949 53.3486 17.5067 53.3486C14.5782 53.3486 10.8597 53.1087 8.07992 51.2382C5.24349 49.3296 3.68865 45.9268 3.32631 40.8351L3.32458 16.6987C3.32458 15.8983 3.97575 15.2472 4.77609 15.2472C5.58118 15.2472 6.23624 15.8983 6.23624 16.6987V25.7532C6.23624 25.78 6.23927 25.8059 6.24013 25.8327C6.24186 25.8621 6.24186 25.892 6.24489 25.9214C6.24748 25.9477 6.25267 25.9733 6.25656 25.9992C6.26089 26.0282 6.26391 26.0576 6.26953 26.0865C6.27516 26.1125 6.28294 26.138 6.28942 26.1635C6.29634 26.1907 6.30196 26.2188 6.31061 26.2457C6.31839 26.2716 6.32877 26.2967 6.33828 26.3218C6.34736 26.3473 6.35558 26.3732 6.36639 26.3983C6.37677 26.4234 6.3893 26.4471 6.40098 26.4714C6.41265 26.4956 6.42346 26.5202 6.436 26.544C6.44854 26.5673 6.46367 26.5898 6.47751 26.6127C6.49135 26.6357 6.50432 26.659 6.51902 26.6811C6.53415 26.7031 6.55101 26.7239 6.56701 26.7451C6.58301 26.7667 6.59771 26.7887 6.61458 26.809C6.63144 26.8294 6.65003 26.848 6.66733 26.8674C6.68549 26.8873 6.70278 26.9085 6.72181 26.9275C6.7404 26.9457 6.75986 26.9621 6.77931 26.9798C6.7992 26.998 6.81866 27.0175 6.83985 27.0347C6.85974 27.0512 6.88092 27.0659 6.90168 27.0814C6.92373 27.0979 6.94491 27.1152 6.9674 27.1307C6.98859 27.145 7.01107 27.1571 7.03269 27.1701C7.05647 27.1848 7.07982 27.2004 7.10446 27.2142C7.12695 27.2263 7.15073 27.2362 7.17364 27.2475C7.19872 27.26 7.2238 27.273 7.24974 27.2842C7.27352 27.2946 7.29904 27.3024 7.32325 27.3115C7.34962 27.321 7.37557 27.3318 7.40237 27.3404C7.42789 27.3482 7.45469 27.3538 7.48064 27.3608C7.50788 27.3677 7.53425 27.3759 7.56149 27.3815C7.58916 27.3871 7.61684 27.3902 7.64451 27.3945C7.67218 27.3984 7.69899 27.404 7.72666 27.407C7.75433 27.4096 7.78287 27.4101 7.81098 27.4114C7.83865 27.4127 7.86632 27.4157 7.89442 27.4157C7.89572 27.4157 7.89745 27.4157 7.89875 27.4157C7.95626 27.4157 8.0129 27.4127 8.06868 27.407C8.09289 27.4049 8.11667 27.3997 8.14088 27.3962C8.17158 27.3919 8.20315 27.3884 8.23341 27.382C8.26541 27.3755 8.29611 27.3664 8.32724 27.3582C8.34886 27.3521 8.37134 27.3478 8.39253 27.3413C8.42712 27.3305 8.46084 27.3171 8.49457 27.3041C8.511 27.2976 8.52873 27.2924 8.54516 27.2855C8.57889 27.2713 8.61088 27.2544 8.64331 27.2384C8.65888 27.2306 8.67487 27.2241 8.69044 27.2159C8.72071 27.1995 8.74924 27.1805 8.77821 27.1623C8.79464 27.1524 8.81151 27.1433 8.82707 27.1325C8.85388 27.1147 8.87939 27.0944 8.9049 27.0745C8.92176 27.062 8.93906 27.0503 8.95506 27.0369C8.97884 27.0179 9.00046 26.9963 9.02294 26.9755C9.0398 26.9604 9.0571 26.9457 9.07353 26.9301C9.09428 26.9094 9.11288 26.8869 9.13233 26.8653C9.14833 26.8475 9.16563 26.8302 9.18076 26.8121C9.19806 26.7909 9.21362 26.7684 9.23005 26.7464C9.24562 26.7256 9.26205 26.7057 9.27632 26.6841C9.29145 26.662 9.30399 26.6391 9.31783 26.6162C9.33166 26.5933 9.3468 26.5708 9.35977 26.5475C9.37231 26.5241 9.38268 26.4999 9.39436 26.4761C9.40603 26.4515 9.419 26.4273 9.42981 26.4022C9.44019 26.378 9.44797 26.3525 9.45705 26.3278C9.467 26.3019 9.47737 26.2764 9.48602 26.2495C9.4938 26.224 9.49943 26.1981 9.50591 26.1721C9.51283 26.1449 9.52104 26.1181 9.5271 26.0904C9.53229 26.0645 9.53531 26.0372 9.5392 26.0104C9.54396 25.9823 9.54915 25.9542 9.55218 25.9257C9.5552 25.8989 9.5552 25.8712 9.5565 25.844C9.55823 25.815 9.56126 25.7869 9.56126 25.7579L9.59974 10.59C9.59974 10.0175 9.8423 9.46665 10.2825 9.03902C10.7555 8.58027 11.3954 8.32689 12.0358 8.34678C13.2352 8.38267 14.2111 9.426 14.2111 10.6752L14.2301 25.6654C14.2301 25.6957 14.2331 25.7251 14.2349 25.7545C14.2362 25.7808 14.2362 25.8081 14.2388 25.834C14.2418 25.8652 14.2478 25.895 14.2526 25.9253C14.2565 25.9499 14.2591 25.975 14.2638 25.9992C14.2708 26.0321 14.2803 26.0641 14.2889 26.0961C14.2945 26.1168 14.2989 26.138 14.3049 26.1583C14.3157 26.1929 14.3296 26.2266 14.3425 26.2604C14.349 26.2772 14.3538 26.2945 14.3607 26.3109C14.3763 26.3468 14.394 26.3819 14.4117 26.4164C14.4186 26.4294 14.4238 26.4433 14.4307 26.4558C14.4502 26.4917 14.4722 26.5258 14.4939 26.5596C14.5008 26.5708 14.5068 26.582 14.5142 26.5929C14.5371 26.627 14.5622 26.659 14.5873 26.691C14.595 26.701 14.602 26.7113 14.6097 26.7208C14.6378 26.755 14.6681 26.787 14.6988 26.8186C14.7053 26.8255 14.7105 26.8324 14.717 26.8389C14.7485 26.8704 14.7823 26.8998 14.8164 26.9288C14.8229 26.9344 14.8285 26.9405 14.835 26.9461C14.8692 26.9742 14.9046 26.9997 14.9405 27.0248C14.9483 27.0304 14.9552 27.0365 14.963 27.0417C14.9993 27.0663 15.0374 27.0884 15.0754 27.11C15.0836 27.1147 15.0914 27.1204 15.1001 27.1251C15.1398 27.1463 15.1809 27.1653 15.2224 27.1839C15.2302 27.1874 15.2376 27.1917 15.2453 27.1952C15.2877 27.2129 15.3314 27.228 15.3755 27.2427C15.3833 27.2449 15.3902 27.2483 15.398 27.2509C15.4416 27.2643 15.4862 27.2752 15.5307 27.2851C15.5398 27.2868 15.5484 27.2899 15.5575 27.292C15.6656 27.3141 15.7776 27.3257 15.8922 27.3257C15.8931 27.3257 15.8939 27.3257 15.8948 27.3257C15.9238 27.3257 15.9523 27.3227 15.9808 27.3214C16.0085 27.3197 16.0362 27.3197 16.0634 27.3171C16.0937 27.3136 16.1226 27.308 16.1525 27.3033C16.1776 27.2994 16.2035 27.2968 16.2286 27.2916C16.2584 27.2855 16.2874 27.2769 16.3168 27.2691C16.3406 27.2626 16.3643 27.2579 16.3877 27.2505C16.4175 27.2414 16.4461 27.2298 16.475 27.2185C16.4967 27.2103 16.5191 27.2038 16.5403 27.1947C16.5702 27.1818 16.5991 27.1666 16.6281 27.1524C16.6471 27.1428 16.667 27.1346 16.6856 27.1247C16.7141 27.1091 16.7414 27.091 16.7691 27.0741C16.7868 27.0629 16.8054 27.0529 16.8227 27.0412C16.8491 27.0235 16.8737 27.0036 16.8988 26.9842C16.9161 26.9712 16.9338 26.9591 16.9507 26.9452C16.9744 26.9258 16.9969 26.9037 17.0198 26.8826C17.0358 26.8679 17.0527 26.8536 17.0687 26.838C17.0899 26.8164 17.1098 26.793 17.1301 26.7706C17.1452 26.7537 17.1612 26.7377 17.1759 26.72C17.1941 26.6975 17.2105 26.6737 17.2274 26.6508C17.2421 26.6309 17.2577 26.6119 17.2715 26.592C17.2871 26.5691 17.3 26.5449 17.3143 26.5211C17.3277 26.499 17.3424 26.4774 17.3545 26.4549C17.3675 26.4311 17.3779 26.4061 17.3895 26.3819C17.4012 26.3576 17.4142 26.3343 17.4245 26.3092C17.4345 26.2854 17.4427 26.2604 17.4514 26.2357C17.4613 26.2093 17.4721 26.1834 17.4803 26.1566C17.4881 26.1306 17.4937 26.1043 17.5006 26.0779C17.5076 26.0511 17.5158 26.0247 17.521 25.9975C17.5266 25.9702 17.5296 25.9421 17.5339 25.9149C17.5378 25.8872 17.5435 25.86 17.546 25.8323C17.5491 25.8042 17.5491 25.7757 17.5504 25.7471C17.5521 25.719 17.5547 25.6918 17.5547 25.6632V5.67942C17.5547 4.40303 18.5924 3.34715 19.8675 3.3251C20.4828 3.31645 21.0674 3.55426 21.5209 4.00005C21.9931 4.46399 22.2638 5.10521 22.2638 5.75897V25.7549C22.2638 25.7852 22.2668 25.8146 22.2685 25.8444C22.2698 25.8708 22.2698 25.8976 22.2724 25.924C22.2754 25.9534 22.2815 25.9819 22.2858 26.0109C22.2901 26.0372 22.2927 26.0636 22.2979 26.0891C22.304 26.1181 22.3126 26.1462 22.32 26.1747C22.3265 26.1994 22.3312 26.224 22.339 26.2482C22.3485 26.2789 22.3606 26.3088 22.3719 26.3386C22.3796 26.3594 22.3861 26.3806 22.3948 26.4009C22.4082 26.432 22.4237 26.4618 22.4389 26.4921C22.4475 26.5098 22.4553 26.5284 22.4648 26.5462C22.4813 26.5769 22.5003 26.6058 22.5189 26.6352C22.5288 26.6508 22.5375 26.6677 22.5483 26.6832C22.5682 26.7126 22.5902 26.7407 22.6123 26.7688C22.6231 26.7827 22.6326 26.7974 22.6438 26.8108C22.668 26.8406 22.6949 26.8683 22.7212 26.8964C22.7316 26.9068 22.7407 26.9184 22.7511 26.9288C22.7783 26.9565 22.8077 26.9816 22.8371 27.0071C22.8479 27.0166 22.8579 27.027 22.8691 27.036C22.902 27.0633 22.9366 27.0879 22.9711 27.1126C22.9798 27.1186 22.988 27.1256 22.9971 27.132C23.0343 27.1571 23.0732 27.18 23.1125 27.2021C23.1199 27.206 23.1264 27.2112 23.1337 27.2151C23.177 27.2384 23.2211 27.2592 23.2665 27.279C23.2708 27.2808 23.2747 27.2834 23.279 27.2851C23.3261 27.305 23.3746 27.3223 23.4238 27.3379C23.4264 27.3391 23.429 27.34 23.4321 27.3409C23.5354 27.3733 23.6431 27.3954 23.7542 27.407C23.7551 27.407 23.7555 27.407 23.7563 27.407C23.8121 27.4127 23.8688 27.4157 23.9263 27.4157C23.9267 27.4157 23.9271 27.4157 23.928 27.4157C23.9574 27.4157 23.9864 27.4127 24.0158 27.4114C24.043 27.4096 24.0703 27.4096 24.0971 27.407C24.1278 27.404 24.1576 27.398 24.1879 27.3932C24.2125 27.3893 24.2376 27.3867 24.2622 27.3815C24.2947 27.375 24.3258 27.3655 24.3574 27.3573C24.3785 27.3517 24.4006 27.3474 24.4214 27.3409C24.4551 27.3301 24.4875 27.3171 24.5204 27.3046C24.5381 27.2976 24.5563 27.292 24.574 27.2847C24.6073 27.2704 24.6393 27.254 24.6717 27.2375C24.6873 27.2298 24.7037 27.2233 24.7193 27.2146C24.7508 27.1973 24.7811 27.1779 24.8118 27.1584C24.8265 27.1493 24.8416 27.1411 24.8563 27.1312C24.8875 27.1104 24.9164 27.0871 24.9458 27.0642C24.9584 27.0546 24.9718 27.0456 24.9843 27.0356C25.0133 27.0114 25.0405 26.985 25.0682 26.9591C25.0794 26.9487 25.0915 26.9392 25.1019 26.9284C25.1287 26.9016 25.1538 26.873 25.1785 26.8441C25.1888 26.8328 25.1996 26.822 25.2096 26.8103C25.2334 26.7814 25.255 26.7507 25.2766 26.7204C25.2857 26.7074 25.2961 26.6953 25.3051 26.6824C25.3255 26.6521 25.3436 26.6205 25.3618 26.589C25.3704 26.5743 25.3804 26.5604 25.3886 26.5453C25.4059 26.5133 25.4206 26.48 25.4357 26.4467C25.4431 26.4311 25.4517 26.416 25.4582 26.4C25.472 26.3676 25.4833 26.3339 25.495 26.3006C25.501 26.2828 25.5088 26.2655 25.5144 26.247C25.5239 26.2154 25.5313 26.1821 25.5395 26.1497C25.5442 26.1289 25.5507 26.1086 25.5551 26.0878C25.5615 26.0558 25.5654 26.0225 25.5702 25.9901C25.5732 25.9676 25.578 25.9456 25.5801 25.9227C25.5836 25.8924 25.5836 25.8613 25.5849 25.8301C25.5862 25.8046 25.5888 25.7795 25.5888 25.7532V12.0328C25.6969 11.1054 26.4842 10.3708 27.4376 10.3543C27.9275 10.3461 28.4006 10.539 28.7659 10.8983C29.1481 11.2736 29.3674 11.7924 29.3674 12.3212V31.9423L29.3682 32.0167C29.3773 33.0937 30.0847 34.0039 31.128 34.2815C32.1644 34.5569 33.2233 34.1215 33.7681 33.1884L33.7785 33.1698C35.0817 30.8929 38.565 27.324 39.582 26.576C39.6996 26.4891 39.8349 26.4195 39.9841 26.3676C40.6465 26.1389 41.4771 26.301 42.0521 26.7714C42.3228 26.9932 42.632 27.3651 42.5637 27.8766Z" />
                                </mask>
                                <path
                                    d="M44.1557 24.1975C42.6981 23.0058 40.6339 22.6245 38.8962 23.2255C38.4305 23.3867 37.9981 23.6129 37.6107 23.8978C36.6227 24.6247 34.4293 26.8065 32.6911 28.9658V12.3212C32.6911 10.9065 32.1095 9.52372 31.0956 8.52708C30.089 7.53779 28.7668 7.00423 27.3793 7.03018C26.7493 7.04142 26.1457 7.16638 25.5879 7.38473V5.75897C25.5879 4.21926 24.9549 2.71414 23.8506 1.62886C22.7562 0.553098 21.3242 -0.0267258 19.8096 0.000946719C16.7898 0.0532649 14.3244 2.5079 14.234 5.50863C13.5798 5.21201 12.8694 5.04554 12.1339 5.02349C10.5998 4.97853 9.08045 5.57219 7.96663 6.65357C6.87573 7.71247 6.27472 9.11036 6.27472 10.5857L6.27083 12.1621C5.79997 12.0073 5.29797 11.9226 4.77609 11.9226C2.14245 11.9226 0 14.065 0 16.6982L0.00172953 40.8934L0.00562094 41.008C0.225703 44.1834 0.890274 46.9023 1.98161 49.0892C3.00462 51.1396 4.43191 52.7904 6.2237 53.9959C9.74977 56.3688 14.1056 56.6732 17.5063 56.6732C24.1844 56.6732 30.1923 53.353 33.197 48.0053C33.5623 47.4164 34.5252 45.9022 35.5651 44.2691C36.5778 42.6779 37.5199 41.2117 38.3505 39.918C38.8071 39.2067 39.2226 38.5599 39.5832 37.9961C40.9267 35.8951 42.3583 33.8582 43.8387 31.9414C44.3879 31.2306 44.5569 31.0377 44.5954 30.9954C45.2885 30.2391 45.7252 29.3134 45.8584 28.3176C46.0681 26.7554 45.4472 25.2533 44.1557 24.1975ZM42.5637 27.8766C42.5208 28.1948 42.376 28.4966 42.1447 28.7491C42.024 28.881 41.8083 29.1318 41.2081 29.9092C39.6676 31.9034 38.1784 34.0216 36.7823 36.2051C36.4225 36.7677 36.0087 37.4119 35.553 38.1214C34.7207 39.4177 33.7772 40.8874 32.7607 42.4837C31.6966 44.1553 30.7116 45.7037 30.351 46.2861L30.3134 46.3501C27.902 50.667 22.9949 53.3486 17.5067 53.3486C14.5782 53.3486 10.8597 53.1087 8.07992 51.2382C5.24349 49.3296 3.68865 45.9268 3.32631 40.8351L3.32458 16.6987C3.32458 15.8983 3.97575 15.2472 4.77609 15.2472C5.58118 15.2472 6.23624 15.8983 6.23624 16.6987V25.7532C6.23624 25.78 6.23927 25.8059 6.24013 25.8327C6.24186 25.8621 6.24186 25.892 6.24489 25.9214C6.24748 25.9477 6.25267 25.9733 6.25656 25.9992C6.26089 26.0282 6.26391 26.0576 6.26953 26.0865C6.27516 26.1125 6.28294 26.138 6.28942 26.1635C6.29634 26.1907 6.30196 26.2188 6.31061 26.2457C6.31839 26.2716 6.32877 26.2967 6.33828 26.3218C6.34736 26.3473 6.35558 26.3732 6.36639 26.3983C6.37677 26.4234 6.3893 26.4471 6.40098 26.4714C6.41265 26.4956 6.42346 26.5202 6.436 26.544C6.44854 26.5673 6.46367 26.5898 6.47751 26.6127C6.49135 26.6357 6.50432 26.659 6.51902 26.6811C6.53415 26.7031 6.55101 26.7239 6.56701 26.7451C6.58301 26.7667 6.59771 26.7887 6.61458 26.809C6.63144 26.8294 6.65003 26.848 6.66733 26.8674C6.68549 26.8873 6.70278 26.9085 6.72181 26.9275C6.7404 26.9457 6.75986 26.9621 6.77931 26.9798C6.7992 26.998 6.81866 27.0175 6.83985 27.0347C6.85974 27.0512 6.88092 27.0659 6.90168 27.0814C6.92373 27.0979 6.94491 27.1152 6.9674 27.1307C6.98859 27.145 7.01107 27.1571 7.03269 27.1701C7.05647 27.1848 7.07982 27.2004 7.10446 27.2142C7.12695 27.2263 7.15073 27.2362 7.17364 27.2475C7.19872 27.26 7.2238 27.273 7.24974 27.2842C7.27352 27.2946 7.29904 27.3024 7.32325 27.3115C7.34962 27.321 7.37557 27.3318 7.40237 27.3404C7.42789 27.3482 7.45469 27.3538 7.48064 27.3608C7.50788 27.3677 7.53425 27.3759 7.56149 27.3815C7.58916 27.3871 7.61684 27.3902 7.64451 27.3945C7.67218 27.3984 7.69899 27.404 7.72666 27.407C7.75433 27.4096 7.78287 27.4101 7.81098 27.4114C7.83865 27.4127 7.86632 27.4157 7.89442 27.4157C7.89572 27.4157 7.89745 27.4157 7.89875 27.4157C7.95626 27.4157 8.0129 27.4127 8.06868 27.407C8.09289 27.4049 8.11667 27.3997 8.14088 27.3962C8.17158 27.3919 8.20315 27.3884 8.23341 27.382C8.26541 27.3755 8.29611 27.3664 8.32724 27.3582C8.34886 27.3521 8.37134 27.3478 8.39253 27.3413C8.42712 27.3305 8.46084 27.3171 8.49457 27.3041C8.511 27.2976 8.52873 27.2924 8.54516 27.2855C8.57889 27.2713 8.61088 27.2544 8.64331 27.2384C8.65888 27.2306 8.67487 27.2241 8.69044 27.2159C8.72071 27.1995 8.74924 27.1805 8.77821 27.1623C8.79464 27.1524 8.81151 27.1433 8.82707 27.1325C8.85388 27.1147 8.87939 27.0944 8.9049 27.0745C8.92176 27.062 8.93906 27.0503 8.95506 27.0369C8.97884 27.0179 9.00046 26.9963 9.02294 26.9755C9.0398 26.9604 9.0571 26.9457 9.07353 26.9301C9.09428 26.9094 9.11288 26.8869 9.13233 26.8653C9.14833 26.8475 9.16563 26.8302 9.18076 26.8121C9.19806 26.7909 9.21362 26.7684 9.23005 26.7464C9.24562 26.7256 9.26205 26.7057 9.27632 26.6841C9.29145 26.662 9.30399 26.6391 9.31783 26.6162C9.33166 26.5933 9.3468 26.5708 9.35977 26.5475C9.37231 26.5241 9.38268 26.4999 9.39436 26.4761C9.40603 26.4515 9.419 26.4273 9.42981 26.4022C9.44019 26.378 9.44797 26.3525 9.45705 26.3278C9.467 26.3019 9.47737 26.2764 9.48602 26.2495C9.4938 26.224 9.49943 26.1981 9.50591 26.1721C9.51283 26.1449 9.52104 26.1181 9.5271 26.0904C9.53229 26.0645 9.53531 26.0372 9.5392 26.0104C9.54396 25.9823 9.54915 25.9542 9.55218 25.9257C9.5552 25.8989 9.5552 25.8712 9.5565 25.844C9.55823 25.815 9.56126 25.7869 9.56126 25.7579L9.59974 10.59C9.59974 10.0175 9.8423 9.46665 10.2825 9.03902C10.7555 8.58027 11.3954 8.32689 12.0358 8.34678C13.2352 8.38267 14.2111 9.426 14.2111 10.6752L14.2301 25.6654C14.2301 25.6957 14.2331 25.7251 14.2349 25.7545C14.2362 25.7808 14.2362 25.8081 14.2388 25.834C14.2418 25.8652 14.2478 25.895 14.2526 25.9253C14.2565 25.9499 14.2591 25.975 14.2638 25.9992C14.2708 26.0321 14.2803 26.0641 14.2889 26.0961C14.2945 26.1168 14.2989 26.138 14.3049 26.1583C14.3157 26.1929 14.3296 26.2266 14.3425 26.2604C14.349 26.2772 14.3538 26.2945 14.3607 26.3109C14.3763 26.3468 14.394 26.3819 14.4117 26.4164C14.4186 26.4294 14.4238 26.4433 14.4307 26.4558C14.4502 26.4917 14.4722 26.5258 14.4939 26.5596C14.5008 26.5708 14.5068 26.582 14.5142 26.5929C14.5371 26.627 14.5622 26.659 14.5873 26.691C14.595 26.701 14.602 26.7113 14.6097 26.7208C14.6378 26.755 14.6681 26.787 14.6988 26.8186C14.7053 26.8255 14.7105 26.8324 14.717 26.8389C14.7485 26.8704 14.7823 26.8998 14.8164 26.9288C14.8229 26.9344 14.8285 26.9405 14.835 26.9461C14.8692 26.9742 14.9046 26.9997 14.9405 27.0248C14.9483 27.0304 14.9552 27.0365 14.963 27.0417C14.9993 27.0663 15.0374 27.0884 15.0754 27.11C15.0836 27.1147 15.0914 27.1204 15.1001 27.1251C15.1398 27.1463 15.1809 27.1653 15.2224 27.1839C15.2302 27.1874 15.2376 27.1917 15.2453 27.1952C15.2877 27.2129 15.3314 27.228 15.3755 27.2427C15.3833 27.2449 15.3902 27.2483 15.398 27.2509C15.4416 27.2643 15.4862 27.2752 15.5307 27.2851C15.5398 27.2868 15.5484 27.2899 15.5575 27.292C15.6656 27.3141 15.7776 27.3257 15.8922 27.3257C15.8931 27.3257 15.8939 27.3257 15.8948 27.3257C15.9238 27.3257 15.9523 27.3227 15.9808 27.3214C16.0085 27.3197 16.0362 27.3197 16.0634 27.3171C16.0937 27.3136 16.1226 27.308 16.1525 27.3033C16.1776 27.2994 16.2035 27.2968 16.2286 27.2916C16.2584 27.2855 16.2874 27.2769 16.3168 27.2691C16.3406 27.2626 16.3643 27.2579 16.3877 27.2505C16.4175 27.2414 16.4461 27.2298 16.475 27.2185C16.4967 27.2103 16.5191 27.2038 16.5403 27.1947C16.5702 27.1818 16.5991 27.1666 16.6281 27.1524C16.6471 27.1428 16.667 27.1346 16.6856 27.1247C16.7141 27.1091 16.7414 27.091 16.7691 27.0741C16.7868 27.0629 16.8054 27.0529 16.8227 27.0412C16.8491 27.0235 16.8737 27.0036 16.8988 26.9842C16.9161 26.9712 16.9338 26.9591 16.9507 26.9452C16.9744 26.9258 16.9969 26.9037 17.0198 26.8826C17.0358 26.8679 17.0527 26.8536 17.0687 26.838C17.0899 26.8164 17.1098 26.793 17.1301 26.7706C17.1452 26.7537 17.1612 26.7377 17.1759 26.72C17.1941 26.6975 17.2105 26.6737 17.2274 26.6508C17.2421 26.6309 17.2577 26.6119 17.2715 26.592C17.2871 26.5691 17.3 26.5449 17.3143 26.5211C17.3277 26.499 17.3424 26.4774 17.3545 26.4549C17.3675 26.4311 17.3779 26.4061 17.3895 26.3819C17.4012 26.3576 17.4142 26.3343 17.4245 26.3092C17.4345 26.2854 17.4427 26.2604 17.4514 26.2357C17.4613 26.2093 17.4721 26.1834 17.4803 26.1566C17.4881 26.1306 17.4937 26.1043 17.5006 26.0779C17.5076 26.0511 17.5158 26.0247 17.521 25.9975C17.5266 25.9702 17.5296 25.9421 17.5339 25.9149C17.5378 25.8872 17.5435 25.86 17.546 25.8323C17.5491 25.8042 17.5491 25.7757 17.5504 25.7471C17.5521 25.719 17.5547 25.6918 17.5547 25.6632V5.67942C17.5547 4.40303 18.5924 3.34715 19.8675 3.3251C20.4828 3.31645 21.0674 3.55426 21.5209 4.00005C21.9931 4.46399 22.2638 5.10521 22.2638 5.75897V25.7549C22.2638 25.7852 22.2668 25.8146 22.2685 25.8444C22.2698 25.8708 22.2698 25.8976 22.2724 25.924C22.2754 25.9534 22.2815 25.9819 22.2858 26.0109C22.2901 26.0372 22.2927 26.0636 22.2979 26.0891C22.304 26.1181 22.3126 26.1462 22.32 26.1747C22.3265 26.1994 22.3312 26.224 22.339 26.2482C22.3485 26.2789 22.3606 26.3088 22.3719 26.3386C22.3796 26.3594 22.3861 26.3806 22.3948 26.4009C22.4082 26.432 22.4237 26.4618 22.4389 26.4921C22.4475 26.5098 22.4553 26.5284 22.4648 26.5462C22.4813 26.5769 22.5003 26.6058 22.5189 26.6352C22.5288 26.6508 22.5375 26.6677 22.5483 26.6832C22.5682 26.7126 22.5902 26.7407 22.6123 26.7688C22.6231 26.7827 22.6326 26.7974 22.6438 26.8108C22.668 26.8406 22.6949 26.8683 22.7212 26.8964C22.7316 26.9068 22.7407 26.9184 22.7511 26.9288C22.7783 26.9565 22.8077 26.9816 22.8371 27.0071C22.8479 27.0166 22.8579 27.027 22.8691 27.036C22.902 27.0633 22.9366 27.0879 22.9711 27.1126C22.9798 27.1186 22.988 27.1256 22.9971 27.132C23.0343 27.1571 23.0732 27.18 23.1125 27.2021C23.1199 27.206 23.1264 27.2112 23.1337 27.2151C23.177 27.2384 23.2211 27.2592 23.2665 27.279C23.2708 27.2808 23.2747 27.2834 23.279 27.2851C23.3261 27.305 23.3746 27.3223 23.4238 27.3379C23.4264 27.3391 23.429 27.34 23.4321 27.3409C23.5354 27.3733 23.6431 27.3954 23.7542 27.407C23.7551 27.407 23.7555 27.407 23.7563 27.407C23.8121 27.4127 23.8688 27.4157 23.9263 27.4157C23.9267 27.4157 23.9271 27.4157 23.928 27.4157C23.9574 27.4157 23.9864 27.4127 24.0158 27.4114C24.043 27.4096 24.0703 27.4096 24.0971 27.407C24.1278 27.404 24.1576 27.398 24.1879 27.3932C24.2125 27.3893 24.2376 27.3867 24.2622 27.3815C24.2947 27.375 24.3258 27.3655 24.3574 27.3573C24.3785 27.3517 24.4006 27.3474 24.4214 27.3409C24.4551 27.3301 24.4875 27.3171 24.5204 27.3046C24.5381 27.2976 24.5563 27.292 24.574 27.2847C24.6073 27.2704 24.6393 27.254 24.6717 27.2375C24.6873 27.2298 24.7037 27.2233 24.7193 27.2146C24.7508 27.1973 24.7811 27.1779 24.8118 27.1584C24.8265 27.1493 24.8416 27.1411 24.8563 27.1312C24.8875 27.1104 24.9164 27.0871 24.9458 27.0642C24.9584 27.0546 24.9718 27.0456 24.9843 27.0356C25.0133 27.0114 25.0405 26.985 25.0682 26.9591C25.0794 26.9487 25.0915 26.9392 25.1019 26.9284C25.1287 26.9016 25.1538 26.873 25.1785 26.8441C25.1888 26.8328 25.1996 26.822 25.2096 26.8103C25.2334 26.7814 25.255 26.7507 25.2766 26.7204C25.2857 26.7074 25.2961 26.6953 25.3051 26.6824C25.3255 26.6521 25.3436 26.6205 25.3618 26.589C25.3704 26.5743 25.3804 26.5604 25.3886 26.5453C25.4059 26.5133 25.4206 26.48 25.4357 26.4467C25.4431 26.4311 25.4517 26.416 25.4582 26.4C25.472 26.3676 25.4833 26.3339 25.495 26.3006C25.501 26.2828 25.5088 26.2655 25.5144 26.247C25.5239 26.2154 25.5313 26.1821 25.5395 26.1497C25.5442 26.1289 25.5507 26.1086 25.5551 26.0878C25.5615 26.0558 25.5654 26.0225 25.5702 25.9901C25.5732 25.9676 25.578 25.9456 25.5801 25.9227C25.5836 25.8924 25.5836 25.8613 25.5849 25.8301C25.5862 25.8046 25.5888 25.7795 25.5888 25.7532V12.0328C25.6969 11.1054 26.4842 10.3708 27.4376 10.3543C27.9275 10.3461 28.4006 10.539 28.7659 10.8983C29.1481 11.2736 29.3674 11.7924 29.3674 12.3212V31.9423L29.3682 32.0167C29.3773 33.0937 30.0847 34.0039 31.128 34.2815C32.1644 34.5569 33.2233 34.1215 33.7681 33.1884L33.7785 33.1698C35.0817 30.8929 38.565 27.324 39.582 26.576C39.6996 26.4891 39.8349 26.4195 39.9841 26.3676C40.6465 26.1389 41.4771 26.301 42.0521 26.7714C42.3228 26.9932 42.632 27.3651 42.5637 27.8766Z"
                                    fill="#7F8A95" stroke="#F7F8FC" stroke-width="1.6" mask="url(#path-1-inside-1)" />
</svg>