<svg width="57" height="45" viewBox="0 0 57 45" fill="none" xmlns="http://www.w3.org/2000/svg">
<path d="M55.5106 19.8558L55.5173 19.8357C56.0163 18.3477 56.2731 16.8008 56.2731 15.2333C56.2731 9.80417 53.3131 4.80472 48.5506 2.18121L48.5502 2.18101C43.023 -0.87124 35.7134 0.0894523 31.1658 4.3749L30.8919 4.63304L30.6176 4.37529C26.0569 0.0897312 18.7417 -0.870993 13.2246 2.18087L13.224 2.1812C8.45558 4.80822 5.50507 9.80396 5.50507 15.2297C5.50507 16.7927 5.75406 18.3404 6.20968 19.6619L6.217 19.6831L6.22189 19.705C6.39105 20.4615 6.66586 21.2518 7.0119 22.0775L7.24435 22.6321H6.64299H1.68923C0.984424 22.6321 0.4 23.2123 0.4 23.9213C0.4 24.6316 0.983965 25.2101 1.68949 25.2106H21.3909C21.9058 25.2106 22.3696 24.9103 22.5743 24.4362L22.5746 24.4353L24.3748 20.2918L24.8535 19.19L25.1308 20.3588L27.4084 29.9561C27.4085 29.9565 27.4086 29.957 27.4087 29.9575C27.5346 30.4686 27.9433 30.8494 28.4618 30.9331C28.5243 30.9426 28.5928 30.9481 28.6639 30.9481C29.1043 30.9481 29.5213 30.7175 29.7589 30.3274C29.7589 30.3274 29.7589 30.3274 29.7589 30.3274L34.6168 22.3478L34.7336 22.1558H34.9584H40.1298C40.84 22.1558 41.4184 21.5768 41.4184 20.8666C41.4184 20.1521 40.8406 19.5767 40.1298 19.5767H34.0101C33.5581 19.5767 33.1417 19.8114 32.9109 20.1928L32.9102 20.194L29.6854 25.4818L29.1787 26.3128L28.9547 25.3656L26.4618 14.8262L26.4611 14.823C26.3386 14.2855 25.8785 13.8867 25.3236 13.8383L25.3166 13.8377L25.3166 13.8376C24.7851 13.7818 24.2533 14.0966 24.0299 14.6098L20.6436 22.3923L20.539 22.6327H20.2768H10.4163H10.1777L10.0643 22.4227C9.44875 21.2821 8.9522 20.1609 8.68893 19.0016C8.28983 17.778 8.0745 16.5082 8.0745 15.2303C8.0745 10.7466 10.5179 6.61256 14.4636 4.44074C19.4867 1.66181 26.1978 2.9368 29.887 7.37256C30.38 7.95765 31.3988 7.95288 31.8762 7.37463L31.8768 7.3739C35.5548 2.94009 42.2718 1.65478 47.3021 4.44572C51.236 6.61293 53.6789 10.7495 53.6789 15.2369C53.6789 16.5243 53.4734 17.7893 53.0237 19.1697C52.5787 21.1601 51.3608 23.2905 49.722 25.4139C48.0736 27.5499 45.9765 29.7077 43.7449 31.7459C39.2815 35.8222 34.2499 39.4467 31.1112 41.4931L30.8908 41.6368L30.6716 41.4914C28.8062 40.2542 24.3127 37.1833 19.8632 33.3822M55.5106 19.8558L20.1213 33.0766M55.5106 19.8558L55.506 19.8765C54.9245 22.5078 53.2191 25.3149 50.9308 28.072C48.6477 30.8227 45.8118 33.4913 43.0141 35.8457C37.4255 40.5487 32.0238 43.9693 31.5755 44.2531M55.5106 19.8558L55.8966 19.9629C53.4898 30.8529 32.6816 44.0263 31.7885 44.5917L31.788 44.592M19.8632 33.3822C19.8626 33.3817 19.862 33.3812 19.8615 33.3807L20.1213 33.0766M19.8632 33.3822C19.8636 33.3825 19.864 33.3829 19.8644 33.3832L20.1213 33.0766M19.8632 33.3822C19.3189 32.9273 18.5122 32.991 18.0426 33.5279M20.1213 33.0766C19.4081 32.4791 18.3507 32.5647 17.7387 33.2677M18.0426 33.5279C18.0433 33.527 18.0439 33.5262 18.0446 33.5254L17.7387 33.2677M18.0426 33.5279C17.5873 34.0708 17.6457 34.8771 18.1888 35.3457M18.0426 33.5279C18.0419 33.5287 18.0412 33.5295 18.0405 33.5303L17.7387 33.2677M17.7387 33.2677L18.1888 35.3457M18.1888 35.3457C18.1885 35.3455 18.1883 35.3453 18.1881 35.3451L17.928 35.649L18.1892 35.346C18.1891 35.3459 18.1889 35.3458 18.1888 35.3457ZM18.1888 35.3457C23.8658 40.2024 29.4697 43.792 30.1365 44.2191C30.1655 44.2377 30.1852 44.2503 30.1951 44.2568L30.1968 44.2579C30.3998 44.3915 30.6358 44.4537 30.8843 44.4537C31.1235 44.4537 31.3606 44.3862 31.5755 44.2531M18.1888 35.3457L29.9769 44.592C30.2537 44.7741 30.5683 44.8537 30.8843 44.8537C31.2008 44.8537 31.5112 44.7639 31.788 44.592M31.5755 44.2531C31.5751 44.2533 31.5748 44.2535 31.5745 44.2537L31.574 44.2541L31.788 44.592M31.5755 44.2531C31.576 44.2528 31.5765 44.2525 31.5769 44.2522L31.788 44.592" fill="#7F8A95" stroke="#F7F8FC" stroke-width="0.8"/>
</svg>
