<svg width="46" height="51" viewBox="0 0 46 51" fill="none" xmlns="http://www.w3.org/2000/svg">
<path d="M39.511 13.9835L39.6336 14.3113C39.5164 14.3551 39.3989 14.3988 39.2811 14.4424C39.3585 14.2895 39.4351 14.1365 39.511 13.9835ZM39.511 13.9835L39.1975 13.8279C39.1423 13.9392 39.0867 14.0505 39.0307 14.1618C39.1913 14.1026 39.3514 14.0431 39.511 13.9835ZM10.8884 46.4898L10.684 46.2057C10.7509 46.1575 10.8191 46.1083 10.8884 46.058V46.4898ZM10.8884 46.4898H11.2384V46.2364C11.1184 46.3238 11.0016 46.4083 10.8884 46.4898ZM31.6931 13.3783L31.8075 13.6897L32.1246 13.5921C35.1333 12.6657 38.0231 11.6497 40.7337 10.5647L40.6036 10.2398L40.7337 10.5647L43.4214 9.48874L44.4444 14.602C46.5745 25.2492 44.8249 34.6102 39.5875 40.9991C37.077 44.0614 33.7872 46.4367 29.8018 48.0558C25.5968 49.7641 20.5871 50.6355 14.9056 50.6355H8.58619L2.70343 38.471C0.555183 34.0288 -0.010859 29.1433 1.06554 24.3387C2.10967 19.6784 4.69872 15.4419 8.354 12.4109C13.072 8.49875 17.1042 4.692 20.679 0.773585L22.6303 -1.36516L25.7773 2.79273L26.0564 2.5815L25.7773 2.79274C28.3971 6.25394 30.3813 9.8083 31.6931 13.3783ZM39.8246 14.139L40.2184 13.3453L31.3483 16.332L31.3786 16.3231L31.3794 16.3229L31.4741 16.6469L31.4776 16.6587V16.6588H31.4338H31.4338H31.1276V16.6587V16.3971L31.3383 16.3349L31.3391 16.3347L31.3383 16.3349L30.2491 16.656L30.2476 16.6513L29.9225 16.7432C28.375 17.1803 26.7747 17.6033 25.1462 18.0051C21.0471 19.0162 17.3369 21.405 14.6966 24.7318C11.9767 28.159 10.5384 32.2907 10.5384 36.676V46.4898V47.1729L11.0929 46.7738C13.4133 45.1035 17.1928 42.2009 21.3955 38.2483C25.4248 34.459 29.0514 30.4582 32.1741 26.3563L31.8957 26.1443L32.1741 26.3563C35.2122 22.3654 37.7749 18.2697 39.8246 14.139ZM22.7118 2.71845L22.4588 2.38422L22.1751 2.69278C18.5964 6.58468 14.573 10.3713 9.8856 14.2581C6.63564 16.9529 4.33546 20.7188 3.40698 24.8633C2.45041 29.1329 2.95433 33.4787 4.86353 37.4265L7.47384 42.8241L8.13892 42.6717V36.6761C8.13892 31.7416 9.75618 27.0971 12.8171 23.2402C15.786 19.4994 19.9613 16.8126 24.5714 15.6754C26.1265 15.2918 27.6551 14.8885 29.135 14.472L29.5016 14.3689L29.3679 14.0123C28.1347 10.7221 26.2873 7.44235 23.8641 4.24083L23.585 4.45206L23.8641 4.24083L22.7118 2.71845ZM14.0187 47.6063L13.1806 48.2361H14.229H14.9056C20.2533 48.2361 24.9638 47.4314 28.8987 45.8328C32.4978 44.3708 35.4724 42.234 37.7317 39.478C42.3876 33.7985 43.9616 25.4819 42.2705 16.0194L42.0875 14.9951L41.6143 15.9218C39.5546 19.9553 37.0243 23.9506 34.0556 27.8462C30.8466 32.0569 27.1221 36.1622 22.9851 40.0475C19.5084 43.3126 16.3525 45.8525 14.0187 47.6063Z" fill="#7F8A95" stroke="#F7F8FC" stroke-width="0.7"/>
</svg>
