<svg width="48" height="45" viewBox="0 0 48 45" fill="none" xmlns="http://www.w3.org/2000/svg">
<path d="M43.8895 4.32583C41.4765 1.64428 38.1557 0.167603 34.5383 0.167603C31.7103 0.167603 28.6602 1.83776 26.4315 3.05805C25.6202 3.5026 24.5107 4.11036 24.1828 4.15037C23.8563 4.11104 22.7525 3.50486 21.9432 3.06043C19.7202 1.83958 16.6758 0.167603 13.8278 0.167603C10.2103 0.167603 6.88934 1.64428 4.47627 4.32583C2.1807 6.87692 0.916504 10.2349 0.916504 13.7812C0.916504 18.8472 2.74926 26.0515 5.81903 33.0534C7.18475 36.1686 8.6385 38.8605 10.0231 40.838C11.6711 43.1918 13.0853 44.3358 14.3468 44.3358C14.9065 44.3358 15.9315 44.1001 16.5066 42.5214C17.0654 40.9874 17.5681 39.2266 18.1011 37.3589C19.5118 32.4163 21.2674 26.2647 24.0938 26.2647H24.2723C25.529 26.2647 26.6538 27.3331 27.7111 29.5311C28.7585 31.7084 29.5547 34.6036 30.3259 37.407C30.8355 39.2604 31.317 41.0105 31.8578 42.5173C32.4213 44.0862 33.4347 44.3208 33.9893 44.3212C35.2445 44.321 36.6574 43.1595 38.3089 40.7701C39.6899 38.7723 41.1468 36.0537 42.5219 32.9083C45.6074 25.8501 47.4495 18.6999 47.4495 13.7811C47.4495 10.2348 46.1852 6.87681 43.8895 4.32583ZM33.6659 7.96244C33.6369 7.96051 30.7148 7.82166 28.0547 7.12243C26.8553 6.80721 25.437 6.17383 25.437 5.9859C25.437 5.80296 26.9779 4.9124 27.3495 4.70883C29.3962 3.58806 32.199 2.05312 34.5383 2.05312C41.431 2.05312 45.5499 8.01617 45.5499 13.7812C45.5499 18.3853 43.722 25.4269 40.7792 32.1576C39.4709 35.1504 38.0372 37.8303 36.7425 39.7033C35.2487 41.8645 34.2821 42.4928 33.9893 42.4355C33.8096 42.4003 33.7872 42.2738 33.6474 41.8841C33.13 40.4432 32.6576 38.7259 32.1576 36.9077C31.3653 34.0276 30.5465 31.0492 29.4252 28.7185C28.0206 25.7984 26.335 24.379 24.2723 24.379H24.0938C22.1068 24.379 20.4602 25.7871 19.0602 28.6837C17.9427 30.9956 17.0941 33.9691 16.2735 36.8448C15.7505 38.6771 15.2566 40.408 14.7203 41.8801C14.6019 42.2051 14.5653 42.4173 14.3468 42.4502C14.1755 42.476 13.4439 42.4197 11.5829 39.7618C10.2873 37.9114 8.85889 35.2617 7.56078 32.3009C4.63408 25.6255 2.81606 18.5292 2.81606 13.7811C2.81606 8.01605 6.93502 2.05301 13.8278 2.05301C15.6194 2.05301 17.9739 2.86332 20.1259 4.22065C20.4416 4.4198 20.886 4.75882 21.3158 5.08684C21.4873 5.21776 21.6563 5.34663 21.8137 5.46417C22.3182 5.83923 22.9999 6.32968 23.8003 6.79747C24.1417 6.99741 24.5663 7.24632 25.0174 7.43629C26.7422 8.16306 28.5711 8.53155 30.4531 8.53155C32.3707 8.53155 33.6604 8.19299 33.6731 8.18902C33.6731 8.18902 33.9617 8.11331 33.9525 8.03884C33.9434 7.96437 33.6659 7.96244 33.6659 7.96244Z" fill="#7F8A95"/>
</svg>
