<svg width="43" height="53" viewBox="0 0 43 53" fill="none" xmlns="http://www.w3.org/2000/svg">
<path d="M39.4259 49.8848H39.7259V49.5848V16.5211V16.2211H39.4259H8.39504C6.3809 16.2211 4.53686 15.4916 3.11636 14.2928L2.62288 13.8764V14.5221V44.2038C2.62288 47.3461 5.22374 49.8848 8.39504 49.8848H39.4259ZM8.39504 13.9361H40.8874C41.5366 13.9361 42.0501 14.4524 42.0598 15.0755V51.0219C42.0598 51.6417 41.5491 52.159 40.8984 52.159H8.39504C3.92989 52.159 0.3 48.5824 0.3 44.2038V8.25513C0.3 3.87658 3.92989 0.3 8.39504 0.3H40.8984C41.5411 0.3 42.0598 0.809376 42.0598 1.43708C42.0598 2.0569 41.5491 2.57417 40.8984 2.57417H8.39504C5.21196 2.57417 2.62288 5.12449 2.62288 8.25513C2.62288 11.3973 5.22374 13.9361 8.39504 13.9361Z" fill="#7F8A95" stroke="#F7F8FC" stroke-width="0.6"/>
<path d="M7.696 8.38517C7.696 7.76536 8.2067 7.24809 8.85744 7.24809H36.3062C36.9474 7.24809 37.4676 7.76682 37.4676 8.38517C37.4676 9.00499 36.9569 9.52226 36.3062 9.52226H8.85744C8.21621 9.52226 7.696 9.00353 7.696 8.38517Z" fill="#7F8A95" stroke="#F7F8FC" stroke-width="0.6"/>
<path d="M15.584 42.3311L15.5845 42.3297L17.3646 37.4349L17.4364 37.2375H17.6465H24.5032C24.5655 37.2375 24.6004 37.2364 24.6211 37.2323L24.8734 37.1827L24.961 37.4243L26.7411 42.3299L26.7416 42.3311C26.9048 42.7872 27.3571 43.0831 27.8327 43.0831C27.9571 43.0831 28.0885 43.0588 28.23 43.0128C28.8336 42.7956 29.1394 42.1463 28.9247 41.5635L28.9242 41.562L22.2653 23.2041L22.2602 23.1901L22.2566 23.1758C22.2566 23.1758 22.2552 23.1709 22.2499 23.1589C22.2439 23.1456 22.2366 23.131 22.2249 23.1081L22.4924 22.9721L22.2249 23.1081L22.192 23.0433L22.1755 23.0109L22.1644 22.989L22.1561 22.9771C22.1482 22.9653 22.1358 22.9465 22.1232 22.9218L22.1043 22.9032L22.0934 22.8818L22.0842 22.8727L22.0872 22.8697L22.0842 22.8727C22.0811 22.8696 22.0781 22.8666 22.0754 22.8637L22.0285 22.8407L22.0044 22.7932C21.9986 22.7881 21.9921 22.7821 21.9853 22.7754L21.9409 22.7317C21.9376 22.7292 21.9333 22.7259 21.9286 22.722C21.9169 22.7124 21.8983 22.6963 21.8785 22.6734C21.8692 22.6665 21.8549 22.6555 21.8389 22.6414C21.8346 22.6385 21.8285 22.6344 21.8224 22.63C21.8207 22.6288 21.819 22.6276 21.8171 22.6262C21.8115 22.6227 21.8065 22.6194 21.8024 22.6166C21.7916 22.6093 21.7817 22.602 21.7768 22.5984L21.7759 22.5977C21.7757 22.5976 21.7756 22.5975 21.7755 22.5974L21.7227 22.5714L21.855 22.3022L21.7227 22.5714L21.6567 22.539C21.634 22.5278 21.619 22.5205 21.6055 22.5147L21.5746 22.5071L21.4636 22.4798C21.4528 22.4783 21.4426 22.4764 21.4332 22.4742C21.4308 22.4737 21.4285 22.4731 21.4262 22.4726H21.4116L21.3675 22.4581C21.3663 22.4579 21.3634 22.4572 21.3576 22.4561L21.3557 22.4557C21.3492 22.4545 21.3398 22.4526 21.3284 22.45C21.3047 22.4483 21.2736 22.4443 21.2393 22.4346C21.2274 22.4327 21.2163 22.4305 21.2105 22.4293H21.2104H21.2103H21.2102H21.21H21.2099H21.2098H21.2097H21.2095H21.2094H21.2093H21.2091H21.209H21.2089H21.2088H21.2086H21.2085H21.2084H21.2082H21.2081H21.208H21.2078H21.2077H21.2076H21.2075H21.2073H21.2072H21.2071H21.2069H21.2068H21.2067H21.2066H21.2064H21.2063H21.2062H21.206H21.2059H21.2058H21.2057H21.2055H21.2054H21.2053H21.2051H21.205H21.2049H21.2048H21.2046H21.2045H21.2044H21.2042H21.2041H21.204H21.2039H21.2037H21.2036H21.2035H21.2033H21.2032H21.2031H21.203H21.2028H21.2027H21.2026H21.2024H21.2023H21.2022H21.2021H21.2019H21.2018H21.2017H21.2015H21.2014H21.2013H21.2012H21.201H21.2009H21.2008H21.2006H21.2005H21.2004H21.2003H21.2001H21.2H21.1999H21.1997H21.1996H21.1995H21.1994H21.1992H21.1991H21.199H21.1988H21.1987H21.1986H21.1984H21.1983H21.1982H21.1981H21.1979H21.1978H21.1977H21.1975H21.1974H21.1973H21.1972H21.197H21.1969H21.1968H21.1966H21.1965H21.1964H21.1963H21.1961H21.196H21.1959H21.1957H21.1956H21.1955H21.1954H21.1952H21.1951H21.195H21.1948H21.1947H21.1946H21.1945H21.1943H21.1942H21.1941H21.1939H21.1938H21.1937H21.1936H21.1934H21.1933H21.1932H21.193H21.1929H21.1928H21.1927H21.1925H21.1924H21.1923H21.1921H21.192H21.1919H21.1918H21.1916H21.1915H21.1914H21.1912H21.1911H21.191H21.1909H21.1907H21.1906H21.1905H21.1903H21.1902H21.1901H21.19H21.1898H21.1897H21.1896H21.1894H21.1893H21.1892H21.189H21.1889H21.1888H21.1887H21.1885H21.1884H21.1883H21.1881H21.188H21.1879H21.1878H21.1876H21.1875H21.1874H21.1872H21.1871H21.187H21.1869H21.1867H21.1866H21.1865H21.1863H21.1862H21.1861H21.186H21.1858H21.1857H21.1856H21.1854H21.1853H21.1852H21.1851H21.1849H21.1848H21.1847H21.1845H21.1844H21.1843H21.1842H21.184H21.1839H21.1838H21.1836H21.1835H21.1834H21.1833H21.1831H21.183H21.1829H21.1827H21.1826H21.1825H21.1824H21.1822H21.1821H21.182H21.1818H21.1817H21.1816H21.1815H21.1813H21.1812H21.1811H21.1809H21.1808H21.1807H21.1806H21.1804H21.1803H21.1802H21.18H21.1799H21.1798H21.1796H21.1795H21.1794H21.1793H21.1791H21.179H21.1789H21.1787H21.1786H21.1785H21.1784H21.1782H21.1781H21.178H21.1778H21.1777H21.1776H21.1775H21.1773H21.1772H21.1771H21.1769H21.1768H21.1767H21.1766H21.1764H21.1763H21.1762H21.176H21.1759H21.1758H21.1757H21.1755H21.1754H21.1753H21.1751H21.175H21.1749H21.1748H21.1746H21.1745H21.1744H21.1742H21.1741H21.174H21.1739H21.1737H21.1736H21.1735H21.1733H21.1732H21.1731H21.173H21.1728H21.1727H21.1726H21.1724H21.1723H21.1722H21.1721H21.1719H21.1718H21.1717H21.1715H21.1714H21.1713H21.1712H21.171H21.1709H21.1708H21.1706H21.1705H21.1704H21.1702H21.1701H21.17H21.1699H21.1697H21.1696H21.1695H21.1693H21.1692H21.1691H21.169H21.1688H21.1687H21.1686H21.1684H21.1683H21.1682H21.1681H21.1679H21.1678H21.1677H21.1675H21.1674H21.1673H21.1672H21.167H21.1669H21.1668H21.1666H21.1665H21.1664H21.1663H21.1661H21.166H21.1659H21.1657H21.1656H21.1655H21.1654H21.1652H21.1651H21.165H21.1648H21.1647H21.1646H21.1645H21.1643H21.1642H21.1641H21.1639H21.1638H21.1637H21.1636H21.1634H21.1633H21.1632H21.163H21.1629H21.1628H21.1627H21.1625H21.1624H21.1623H21.1621H21.162H21.1619H21.1618H21.1616H21.1615H21.1614H21.1612H21.1611H21.161H21.1608H21.1607H21.1606H21.1605H21.1603H21.1602H21.1601H21.1599H21.1598H21.1597H21.1596H21.1594H21.1593H21.1592H21.159H21.1589H21.1588H21.1587H21.1585H21.1584H21.1583H21.1581H21.158H21.1579H21.1578H21.1576H21.1575H21.1574H21.1572H21.1571H21.157H21.1568H21.1567H21.1566H21.1565H21.1563H21.1562H21.1561H21.1559H21.1558H21.1557H21.1556H21.1554H21.1553H21.1552H21.155H21.1549H21.1548H21.1546H21.1545H21.1544H21.1543H21.1541H21.154H21.1539H21.1537H21.1536H21.1535H21.1533H21.1532H21.1531H21.153H21.1528H21.1527H21.1526H21.1524H21.1523H21.1522H21.152H21.1519H21.1518H21.1517H21.1515H21.1514H21.1513H21.1511H21.151H21.1509H21.1507H21.1506H21.1505H21.1503H21.1502H21.1501H21.15H21.1498H21.1497H21.1496H21.1494H21.1493H21.1492H21.149H21.1489H21.1488H21.1486H21.1485H21.1484H21.1482H21.1481H21.148H21.1478H21.1477H21.1476H21.1475H21.1473H21.1472H21.1471H21.1469H21.1468H21.1467H21.1465H21.1464H21.1463H21.1461H21.146H21.1459H21.1457H21.1456H21.1455H21.1453H21.1452H21.1451H21.1449H21.1448H21.1447H21.1445H21.1444H21.1443H21.1441H21.144H21.1439H21.1437H21.1436H21.1435H21.1433H21.1432H21.1431H21.1429H21.1428H21.1427H21.1425H21.1424H21.1422H21.1421H21.142H21.1418H21.1417H21.1416H21.1414H21.1413H21.1412H21.141H21.1409H21.1408H21.1406H21.1405H21.1404H21.1402H21.1401H21.1399H21.1398H21.1397H21.1395H21.1394H21.1393H21.1391H21.139H21.1389H21.1387H21.1386H21.1384H21.1383H21.1382H21.138H21.1379H21.1378H21.1376H21.1375H21.1373H21.1372H21.1371H21.1369H21.1368H21.1366H21.1365H21.1364H21.1362H21.1361H21.136H21.1358H21.1357H21.1355H21.1354H21.1353H21.1351H21.135H21.1348H21.1347H21.1346H21.1344H21.1343H21.1341H21.134H21.1339H21.1337H21.1336H21.1334H21.1333H21.1332H21.133H21.1329H21.1327H21.1326H21.1325H21.1323H21.1322H21.132H21.1319H21.1317H21.1316H21.1315H21.1313H21.1312H21.131H21.1309H21.1307H21.1306H21.1305H21.1303H21.1302H21.13H21.1299H21.1297H21.1296H21.1295H21.1293H21.1292H21.129H21.1289H21.1287H21.1286H21.1284H21.1283H21.1282H21.128H21.1279H21.1277H21.1276H21.1274H21.1273H21.1271H21.127H21.1268H21.1267H21.1265H21.1264H21.1263H21.1261H21.126H21.1258H21.1257H21.1255H21.1254H21.1252H21.1251H21.1249H21.1248H21.1246H21.1245H21.1243H21.1242H21.124H21.1239H21.1237H21.1236H21.1234H21.1233H21.1231H21.123H21.1228H21.1227H21.1225H21.1224H21.1222H21.1221H21.1219H21.1218H21.1216H21.1215H21.1213H21.1212H21.121H21.1209H21.1207H21.1206H21.1204H21.1203H21.1201H21.12H21.1198H21.1197H21.1195H21.1194H21.1192H21.119H21.1189H21.1187H21.1186H21.1184H21.1183H21.1181H21.118H21.1178H21.1177H21.1175H21.1173H21.1172H21.117H21.1169H21.1167H21.1166H21.1164H21.1163H21.1161H21.1159H21.1158H21.1156H21.1155H21.1153H21.1152H21.115H21.1148H21.1147H21.1145H21.1144H21.1142H21.114H21.1139H21.1137H21.1136H21.1134H21.1132H21.1131H21.1129H21.1128H21.1126H21.1124H21.1123H21.1121H21.112H21.1118H21.1116H21.1115H21.1113H21.1112H21.111H21.1108H21.1107H21.1105H21.1103H21.1102H21.11H21.1098H21.1097H21.1095H21.1094H21.1092H21.109H21.1089H21.1087H21.1085H21.1084H21.1082H21.108H21.1079H21.1077H21.1075H21.1074H21.1072H21.107H21.1069H21.1067H21.1065H21.1064H21.1062H21.106H21.1059H21.1057H21.1055H21.1054H21.1052H21.105H21.1049H21.1047H21.1045H21.1043H21.1042H21.104H21.1038H21.1037H21.1035H21.1033H21.1031H21.103H21.1028H21.1026H21.1025H21.1023H21.1021H21.1019H21.1018H21.1016H21.1014H21.1012H21.1011H21.1009H21.1007H21.1007L21.0787 22.4401H21.0348L21.0128 22.4509H20.9682L20.9656 22.4519L20.9486 22.4576L20.903 22.4726H20.8884C20.8861 22.4731 20.8837 22.4737 20.8813 22.4742C20.872 22.4763 20.8619 22.4783 20.8511 22.4798C20.8146 22.4888 20.7895 22.4954 20.7727 22.5009L20.7272 22.5158H20.7176C20.7047 22.5215 20.6902 22.5285 20.6688 22.539L20.6029 22.5714L20.4705 22.3022L20.6029 22.5714L20.5472 22.5988L20.5471 22.5989L20.5347 22.6071C20.5226 22.6151 20.5033 22.6273 20.4782 22.6396L15.584 42.3311ZM15.584 42.3311C15.4204 42.7883 14.9781 43.0831 14.4929 43.0831C14.3685 43.0831 14.237 43.0588 14.0956 43.0128C13.496 42.7971 13.1812 42.1473 13.3705 41.5456L20.0492 23.1936L20.0543 23.1795L20.058 23.165C20.058 23.165 20.0594 23.1601 20.0647 23.1481C20.0706 23.1348 20.078 23.1202 20.0896 23.0973L20.1226 23.0325L20.1487 22.9811L20.1494 22.9803C20.1531 22.9754 20.1605 22.9656 20.168 22.9549C20.1708 22.9509 20.1742 22.946 20.1777 22.9405C20.1791 22.9387 20.1804 22.937 20.1815 22.9354C20.186 22.9294 20.1901 22.9235 20.193 22.9192C20.2073 22.9036 20.2185 22.8896 20.2255 22.8804C20.2486 22.8612 20.265 22.8429 20.275 22.8311C20.2789 22.8265 20.2823 22.8223 20.2848 22.8191L20.3292 22.7754L20.3842 22.7214L20.4191 22.6871M15.584 42.3311L20.4191 22.6871M21.9925 22.7682L22.0345 22.7255L21.9925 22.7682ZM21.9925 22.7682L22.0345 22.7255M21.9925 22.7682L22.0345 22.7255M20.4191 22.6871L20.4194 22.6865M20.4191 22.6871L20.4194 22.6865M20.4194 22.6865C20.4207 22.6853 20.4221 22.684 20.4234 22.6827C20.4246 22.6818 20.4264 22.6805 20.4288 22.6787L20.4307 22.6774C20.4391 22.6712 20.4562 22.6586 20.4756 22.6414L20.4194 22.6865ZM22.0345 22.7255L22.1953 22.5619L22.0345 22.7255ZM20.5524 22.5953C20.553 22.5949 20.5529 22.595 20.5523 22.5954L20.5524 22.5953ZM21.9493 22.7381C21.9507 22.7392 21.9503 22.7389 21.9487 22.7377L21.9493 22.7381ZM22.1682 22.9944C22.1685 22.995 22.1685 22.9949 22.1681 22.9943L22.1682 22.9944ZM20.1556 22.9676C20.1555 22.9677 20.1555 22.9678 20.1554 22.968L20.1556 22.9676L20.1552 22.9675L20.1556 22.9676ZM20.2914 22.8107C20.2925 22.8094 20.2923 22.8097 20.291 22.8113L20.2914 22.8107ZM21.4557 27.7536L21.1744 26.979L20.8919 27.7532L18.4086 34.5605L18.2616 34.9633H18.6904H23.6461H24.0743L23.9281 34.5609L21.4557 27.7536Z" fill="#7F8A95" stroke="#F7F8FC" stroke-width="0.6"/>
</svg>



