<svg width="53" height="50" viewBox="0 0 53 50" fill="none" xmlns="http://www.w3.org/2000/svg">
<path d="M50.0902 39.0142L50.0476 39.1041L50.0671 39.2016L51.7397 47.5665L52.0339 47.5077L51.7398 47.5665C51.8909 48.3225 51.3123 49.0319 50.5383 49.0319C50.5292 49.0319 50.5212 49.0321 50.514 49.0323C50.5039 49.0326 50.4956 49.0331 50.4891 49.0335C50.4847 49.0337 50.4823 49.0339 50.4812 49.0339C50.4774 49.0337 50.4634 49.0324 50.4287 49.0271C50.3292 49.0119 50.117 48.9723 49.6118 48.8735C49.0788 48.7692 48.2271 48.6005 46.8524 48.3281C45.6359 48.0871 44.0098 47.7649 41.8326 47.3345L41.7353 47.3152L41.6458 47.3577C31.9262 51.968 20.2225 46.7053 17.3087 36.2138L17.2506 36.0048L17.0339 35.9945C14.7228 35.8842 12.5051 35.3315 10.4199 34.3424L10.3303 34.2999L10.2331 34.3191L1.76509 35.9933L1.76506 35.9933C0.909782 36.1625 0.155012 35.4063 0.326014 34.5511L1.99879 26.1862L2.01829 26.0887L1.97569 25.9989C0.865038 23.6565 0.302248 21.1447 0.302248 18.5222C0.302248 8.87765 8.19445 1.02778 17.8983 1.02778C25.7765 1.02778 32.6622 6.29441 34.7583 13.845L34.8163 14.0539L35.0329 14.0644C44.3362 14.5146 51.7636 22.1815 51.7636 31.5375C51.7636 34.1601 51.2008 36.6719 50.0902 39.0142ZM10.2644 31.8151L10.2644 31.815L11.1963 31.6589L11.0597 31.9261C11.0597 31.9261 11.0597 31.9261 11.0597 31.9261C12.7495 32.7899 14.5468 33.3141 16.4224 33.4944L16.7833 33.5291L16.7498 33.168C15.864 23.6297 22.7685 15.3569 31.9361 14.1848L32.2973 14.1386L32.1829 13.793C30.1739 7.72235 24.4265 3.47825 17.8983 3.47825C9.54867 3.47825 2.75272 10.2248 2.75272 18.5222C2.75272 20.9305 3.30467 23.2321 4.39279 25.3608L4.39285 25.361C4.51867 25.6068 4.55757 25.8881 4.50341 26.1589L4.79759 26.2177L4.50341 26.1589L3.17656 32.7937L3.08853 33.2339L3.52893 33.1468L10.2644 31.8151ZM48.537 46.1621L48.9774 46.2492L48.8894 45.809L47.5626 39.1742C47.5084 38.9033 47.5473 38.6221 47.6731 38.3763L47.6732 38.3762C48.7614 36.2474 49.3132 33.9458 49.3132 31.5375C49.3132 23.2401 42.5173 16.4936 34.1676 16.4936C25.8721 16.4936 19.1237 23.242 19.1237 31.5375C19.1237 39.833 25.8721 46.5815 34.1676 46.5815C36.5759 46.5815 38.8775 46.0295 41.0063 44.9414C41.2514 44.8161 41.5315 44.7771 41.8017 44.8304L48.537 46.1621Z" fill="#7F8A95" stroke="#F7F8FC" stroke-width="0.6"/>
</svg>
